<svg width="12" height="12" viewBox="0 0 12 12" fill="none" xmlns="http://www.w3.org/2000/svg">
<path d="M5.53176 2.69006L0.191706 7.99242C0.068097 8.11505 2.08524e-09 8.27876 0 8.45332C-2.07796e-09 8.62788 0.068097 8.79159 0.191706 8.91423L0.584873 9.30471C0.841066 9.5588 1.25745 9.5588 1.51326 9.30471L5.99751 4.85219L10.4867 9.30965C10.6104 9.43229 10.7751 9.5 10.9508 9.5C11.1267 9.5 11.2915 9.43229 11.4152 9.30965L11.8083 8.91917C11.9319 8.79644 12 8.63282 12 8.45826C12 8.2837 11.9319 8.11999 11.8083 7.99736L6.46336 2.69006C6.33936 2.56713 6.1738 2.49961 5.99781 2.5C5.82112 2.49961 5.65566 2.56713 5.53176 2.69006Z" fill="#111111"/>
</svg>
