<svg width="12" height="12" viewBox="0 0 12 12" fill="none" xmlns="http://www.w3.org/2000/svg">
<path d="M6.46824 9.30994L11.8083 4.00758C11.9319 3.88495 12 3.72124 12 3.54668C12 3.37212 11.9319 3.20841 11.8083 3.08577L11.4151 2.69529C11.1589 2.4412 10.7425 2.4412 10.4867 2.69529L6.00249 7.14781L1.51326 2.69035C1.38965 2.56771 1.22487 2.5 1.04916 2.5C0.873261 2.5 0.708482 2.56771 0.584775 2.69035L0.191705 3.08083C0.0680967 3.20356 7.63023e-09 3.36718 0 3.54174C-7.63023e-09 3.7163 0.0680966 3.88001 0.191705 4.00264L5.53664 9.30994C5.66064 9.43287 5.8262 9.50039 6.00219 9.5C6.17888 9.50039 6.34434 9.43287 6.46824 9.30994Z" fill="#111111"/>
</svg>
