<svg width="6" height="8" viewBox="0 0 6 8" fill="none" xmlns="http://www.w3.org/2000/svg">
<path d="M5.0399 3.72796C5.11942 3.69925 5.19212 3.65437 5.2534 3.59616L5.25396 3.59394C5.37976 3.47201 5.45526 3.30737 5.46555 3.13253C5.47584 2.95768 5.42017 2.78533 5.30954 2.6495L3.27741 0.227308C3.2201 0.156334 3.14763 0.0990804 3.0653 0.0597477C2.98297 0.020415 2.89287 1.08817e-09 2.80162 0C2.71037 -1.08817e-09 2.62027 0.020415 2.53794 0.0597477C2.45561 0.0990804 2.38313 0.156334 2.32582 0.227308L0.292027 2.65173C0.180535 2.78719 0.12432 2.95973 0.134626 3.13483C0.144931 3.30993 0.220997 3.4747 0.34761 3.59616C0.408861 3.65401 0.481416 3.69858 0.560721 3.72708C0.640026 3.75557 0.724368 3.76737 0.808453 3.76174C0.892538 3.7561 0.974549 3.73316 1.04934 3.69434C1.12413 3.65552 1.19008 3.60167 1.24306 3.53616L2.16463 2.44062V7.32945C2.16 7.50246 2.22423 7.67024 2.34324 7.79596C2.46225 7.92167 2.62631 7.99506 2.7994 8C2.88546 7.9977 2.97023 7.97844 3.04883 7.94333C3.12744 7.90822 3.19834 7.85794 3.25746 7.79539C3.31659 7.73284 3.36278 7.65923 3.39339 7.5788C3.424 7.49837 3.43842 7.41269 3.43583 7.32667V2.43784L4.35573 3.53616C4.40872 3.60201 4.47479 3.65617 4.54978 3.6952C4.62477 3.73424 4.70704 3.7573 4.7914 3.76294C4.87576 3.76858 4.96038 3.75667 5.0399 3.72796Z" fill="#3B890B"/>
</svg>
