<svg width="18" height="20" viewBox="0 0 18 20" fill="none" xmlns="http://www.w3.org/2000/svg">
<path d="M15.3165 5.97108L16.5559 4.7069C16.739 4.51922 16.8416 4.26513 16.8413 4.00037C16.841 3.7356 16.7377 3.48177 16.5542 3.29455C16.3706 3.10734 16.1218 3.00202 15.8622 3.0017C15.6026 3.00138 15.3535 3.10609 15.1695 3.29286L13.8708 4.61756C12.7256 3.76877 11.3861 3.23388 9.98034 3.06406V1.99999H10.9608C11.2208 1.99999 11.4701 1.89463 11.654 1.70709C11.8379 1.51956 11.9411 1.26521 11.9411 0.999993C11.9411 0.734778 11.8379 0.480426 11.654 0.292891C11.4701 0.105356 11.2208 0 10.9608 0H7.03916C6.77914 0 6.52978 0.105356 6.34592 0.292891C6.16207 0.480426 6.05878 0.734778 6.05878 0.999993C6.05878 1.26521 6.16207 1.51956 6.34592 1.70709C6.52978 1.89463 6.77914 1.99999 7.03916 1.99999H8.01958V3.06406C3.88561 3.56126 0.666626 7.15225 0.666626 11.4999C0.666626 16.1865 4.40482 20 8.99996 20C13.5951 20 17.3333 16.1865 17.3333 11.4999C17.3335 9.4698 16.6176 7.50735 15.3165 5.97108ZM8.99996 18C5.48626 18 2.62738 15.0839 2.62738 11.4999C2.62738 7.91594 5.48626 4.99987 8.99996 4.99987C12.5137 4.99987 15.3725 7.91594 15.3725 11.4999C15.3725 15.0839 12.5137 18 8.99996 18ZM11.7262 13.375C11.8878 13.5821 11.9623 13.8462 11.9334 14.1093C11.9044 14.3724 11.7744 14.6131 11.5718 14.7785C11.3691 14.944 11.1104 15.0207 10.8524 14.992C10.5944 14.9632 10.3581 14.8312 10.1953 14.625L8.23452 12.1249C8.09529 11.9476 8.01948 11.7271 8.01958 11.4999V7.9999C8.01958 7.73468 8.12287 7.48033 8.30673 7.29279C8.49058 7.10526 8.73995 6.9999 8.99996 6.9999C9.25997 6.9999 9.50934 7.10526 9.69319 7.29279C9.87705 7.48033 9.98034 7.73468 9.98034 7.9999V11.1494L11.7262 13.375Z" fill="#DB9F68"/>
</svg>
