<svg width="40" height="40" viewBox="0 0 40 40" fill="none" xmlns="http://www.w3.org/2000/svg">
<path fill-rule="evenodd" clip-rule="evenodd" d="M33.1359 11.1256C35.1379 16.7814 34.4229 23.1814 30.9908 28.093C36.1389 28.6884 40 33.1535 40 38.5116C40 39.4047 39.428 40 38.57 40H12.8295C11.9715 40 11.3994 39.4047 11.3994 38.5116C11.3994 37.1721 11.6854 35.9814 12.1145 34.6419C5.96534 32.707 1.38925 27.3488 0.245226 20.6512C-1.3278 10.9767 4.82131 1.74884 14.2595 0.111628C14.5455 -0.0372093 14.6885 -0.0372093 14.9745 0.111628C15.6895 0.409302 16.1185 1.30233 15.8325 2.04651C15.6895 2.34419 15.6895 2.49302 15.6895 2.7907C15.6895 4.42791 16.9766 5.76744 18.5496 5.76744C19.5506 5.76744 20.4086 5.32093 20.9806 4.42791C20.9806 4.35349 21.0164 4.31628 21.0521 4.27907C21.0879 4.24186 21.1236 4.20465 21.1236 4.13023C21.8386 3.53488 22.8397 3.68372 23.2687 4.42791C23.8407 5.32093 24.6987 5.76744 25.6997 5.76744H26.7007C26.8437 5.6186 27.1298 5.6186 27.4158 5.6186C28.1308 5.6186 28.7028 6.51163 28.5598 7.25581C28.5598 8.89302 29.8468 10.2326 31.4198 10.2326C32.1348 10.0837 32.8499 10.3814 33.1359 11.1256ZM12.8295 3.38605C6.82335 5.32093 2.81928 11.1256 2.81928 17.6744C2.81928 24.5209 7.25236 30.3256 13.5445 32.1116C15.4035 29.5814 18.4066 28.093 21.4096 28.093H27.2728C30.9908 24.2233 32.2779 18.4186 30.7048 13.2093C28.4168 12.9116 26.4147 11.1256 25.8427 8.74419C24.5557 8.74419 23.1257 8.29767 22.1247 7.25581C21.2666 8 20.2656 8.44651 19.1216 8.59535C15.9755 9.04186 13.1155 6.66047 12.8295 3.38605ZM21.4096 31.0698C17.9776 31.0698 15.1175 33.6 14.4025 37.0233H36.9969C36.2819 33.6 33.4219 31.0698 29.9898 31.0698H21.4096ZM12.1139 7.25583C14.1159 7.25583 15.689 8.89304 15.689 10.9768C15.689 13.0605 14.1159 14.6977 12.1139 14.6977C10.1119 14.6977 8.53882 13.0605 8.53882 10.9768C8.53882 8.89304 10.1119 7.25583 12.1139 7.25583ZM11.3989 10.9768C11.3989 11.4233 11.6849 11.7209 12.1139 11.7209C12.5429 11.7209 12.8289 11.4233 12.8289 10.9768C12.8289 10.5303 12.5429 10.2326 12.1139 10.2326C11.6849 10.2326 11.3989 10.5303 11.3989 10.9768ZM16.4047 20.6512C18.4067 20.6512 19.9797 22.2884 19.9797 24.3721C19.9797 26.4558 18.4067 28.093 16.4047 28.093C14.4026 28.093 12.8296 26.4558 12.8296 24.3721C12.8296 22.2884 14.4026 20.6512 16.4047 20.6512ZM16.4047 23.6279C15.9757 23.6279 15.6896 23.9256 15.6896 24.3721C15.6896 24.8186 15.9757 25.1163 16.4047 25.1163C16.8337 25.1163 17.1197 24.8186 17.1197 24.3721C17.1197 23.9256 16.8337 23.6279 16.4047 23.6279ZM23.5543 17.6744C25.5564 17.6744 27.1294 16.0372 27.1294 13.9535C27.1294 11.8698 25.5564 10.2326 23.5543 10.2326C21.5523 10.2326 19.9792 11.8698 19.9792 13.9535C19.9792 16.0372 21.5523 17.6744 23.5543 17.6744ZM23.5543 13.2093C23.9833 13.2093 24.2693 13.507 24.2693 13.9535C24.2693 14.4 23.9833 14.6977 23.5543 14.6977C23.1253 14.6977 22.8393 14.4 22.8393 13.9535C22.8393 13.507 23.1253 13.2093 23.5543 13.2093ZM24.699 21.0977L26.1291 19.6093C26.7011 19.0139 27.5591 19.0139 28.1311 19.6093C28.7031 20.2046 28.7031 21.0977 28.1311 21.693L26.7011 23.1814C26.1291 23.7767 25.271 23.7767 24.699 23.1814C24.127 22.586 24.127 21.693 24.699 21.0977ZM7.53897 16.6326L6.10894 18.121C5.53693 18.7163 5.53693 19.6093 6.10894 20.2047C6.68095 20.8 7.53897 20.8 8.11098 20.2047L9.54101 18.7163C10.113 18.121 10.113 17.2279 9.54101 16.6326C8.969 16.0372 8.11098 16.0372 7.53897 16.6326ZM31.4196 32.5581H29.9896C29.1316 32.5581 28.5596 33.1535 28.5596 34.0465C28.5596 34.9395 29.1316 35.5349 29.9896 35.5349H31.4196C32.2776 35.5349 32.8497 34.9395 32.8497 34.0465C32.8497 33.1535 32.2776 32.5581 31.4196 32.5581ZM19.9798 32.5581H21.4099C22.2679 32.5581 22.8399 33.1535 22.8399 34.0465C22.8399 34.9395 22.2679 35.5349 21.4099 35.5349H19.9798C19.1218 35.5349 18.5498 34.9395 18.5498 34.0465C18.5498 33.1535 19.1218 32.5581 19.9798 32.5581Z" fill="#111111"/>
</svg>
