<svg width="24" height="24" viewBox="0 0 24 24" fill="none" xmlns="http://www.w3.org/2000/svg">
<path fill-rule="evenodd" clip-rule="evenodd" d="M21 4H19.0029V3C19.0029 1.3457 17.6572 0 16.0029 0H8.00293C6.34863 0 5.00293 1.3457 5.00293 3V4H3C1.3457 4 0 5.3457 0 7V22C0 23.103 0.896973 24 2 24H22C23.103 24 24 23.103 24 22V7C24 5.3457 22.6543 4 21 4ZM2 7C2 6.44873 2.44873 6 3 6H5.00293V22H2V7ZM11 22V19C11 18.4487 11.4487 18 12 18C12.5513 18 13 18.4487 13 19V22H11ZM15 22V19C15 17.3457 13.6543 16 12 16C10.3457 16 9 17.3457 9 19V22H7.00293V3C7.00293 2.44873 7.45166 2 8.00293 2H16.0029C16.5542 2 17.0029 2.44873 17.0029 3V22H15ZM22 22H19.0029V6H21C21.5513 6 22 6.44873 22 7V22ZM10.0029 4C9.45068 4 9.00293 4.44775 9.00293 5V5.65967C9.00293 6.21191 9.45068 6.65967 10.0029 6.65967C10.5552 6.65967 11.0029 6.21191 11.0029 5.65967V5C11.0029 4.44775 10.5552 4 10.0029 4ZM13.0029 5C13.0029 4.44775 13.4507 4 14.0029 4C14.5552 4 15.0029 4.44775 15.0029 5V5.65967C15.0029 6.21191 14.5552 6.65967 14.0029 6.65967C13.4507 6.65967 13.0029 6.21191 13.0029 5.65967V5ZM10.0029 8C9.45068 8 9.00293 8.44775 9.00293 9V9.65967C9.00293 10.2119 9.45068 10.6597 10.0029 10.6597C10.5552 10.6597 11.0029 10.2119 11.0029 9.65967V9C11.0029 8.44775 10.5552 8 10.0029 8ZM13.0029 9C13.0029 8.44775 13.4507 8 14.0029 8C14.5552 8 15.0029 8.44775 15.0029 9V9.65967C15.0029 10.2119 14.5552 10.6597 14.0029 10.6597C13.4507 10.6597 13.0029 10.2119 13.0029 9.65967V9ZM10.0029 12C9.45068 12 9.00293 12.4478 9.00293 13V13.6597C9.00293 14.2119 9.45068 14.6597 10.0029 14.6597C10.5552 14.6597 11.0029 14.2119 11.0029 13.6597V13C11.0029 12.4478 10.5552 12 10.0029 12ZM13.0029 13C13.0029 12.4478 13.4507 12 14.0029 12C14.5552 12 15.0029 12.4478 15.0029 13V13.6597C15.0029 14.2119 14.5552 14.6597 14.0029 14.6597C13.4507 14.6597 13.0029 14.2119 13.0029 13.6597V13Z" fill="white"/>
</svg>
