<svg width="24" height="24" viewBox="0 0 24 24" fill="none" xmlns="http://www.w3.org/2000/svg">
<path fill-rule="evenodd" clip-rule="evenodd" d="M23.8129 5.23153C24.1847 2.76929 23.8898 0.967041 23.877 0.891572C23.8106 0.497917 23.5022 0.18948 23.1085 0.123058C23.033 0.110308 21.2307 -0.184629 18.7685 0.187136C15.4228 0.692307 12.5356 2.18368 10.3572 4.36205C9.63298 5.08631 9.01044 5.91281 8.465 6.79209C7.76328 6.44325 6.97991 6.27398 6.18163 6.30783C5.00507 6.35733 3.8983 6.84342 3.0652 7.67658L0.727263 10.0146C0.436263 10.3056 0.369044 10.7523 0.56156 11.116C0.754075 11.4798 1.16142 11.6753 1.56553 11.5984C3.07274 11.3113 4.62665 11.6884 5.83096 12.611C5.73583 12.8737 5.6505 13.1114 5.56961 13.3368L5.56956 13.3369C5.46106 13.6392 5.36055 13.9192 5.2551 14.2074C4.88282 15.2252 5.14021 16.3808 5.91083 17.1514L6.84852 18.0891C7.61999 18.8606 8.77578 19.1167 9.7925 18.7448C10.068 18.644 10.3711 18.5352 10.6861 18.4221L10.6869 18.4218C10.9166 18.3393 11.1526 18.2546 11.389 18.169C12.3115 19.3732 12.6886 20.9271 12.4015 22.4344C12.3245 22.8387 12.5201 23.2459 12.8839 23.4384C13.2476 23.6309 13.6944 23.5637 13.9854 23.2727L16.3233 20.9348C17.1565 20.1017 17.6426 18.9949 17.6921 17.8183C17.7257 17.0198 17.5566 16.2366 17.2078 15.535C18.0871 14.9896 18.9136 14.3671 19.6379 13.6428C21.8215 11.4593 23.3089 8.56987 23.8129 5.23153ZM22.0981 1.90248C22.1552 2.7983 22.1588 4.46691 21.664 6.38808L17.6085 2.33251C19.1187 1.94649 20.6867 1.8121 22.0981 1.90248ZM3.67809 9.71545L4.39105 9.00248C5.24821 8.14537 6.50966 7.9469 7.55581 8.43375C7.16764 9.21506 6.82466 10.0131 6.51308 10.7991C5.65255 10.2404 4.68491 9.8721 3.67809 9.71545ZM14.9976 19.6091L14.2847 20.322C14.128 19.3152 13.7597 18.3475 13.201 17.4871C13.987 17.1755 14.7851 16.8325 15.5664 16.4443C16.0533 17.4904 15.8547 18.7519 14.9976 19.6091ZM10.0661 16.6526L10.066 16.6527L10.0658 16.6527C9.75087 16.7658 9.44426 16.8758 9.14853 16.984C8.80836 17.1085 8.43505 17.0239 8.17447 16.7633L7.23678 15.8256C6.9762 15.5651 6.89164 15.1918 7.0161 14.8516C7.12428 14.5558 7.23434 14.2492 7.34736 13.9343L7.34756 13.9338C8.32304 11.2161 9.53699 7.83398 11.6831 5.68791C12.8345 4.53652 14.1545 3.64013 15.6291 3.00479L20.9902 8.36592C20.4168 9.69731 19.5661 11.0631 18.3122 12.317C16.1661 14.4631 12.7838 15.6771 10.0661 16.6526ZM1.6005 18.4221C1.32745 18.6952 0.908062 19.2706 0.419813 21.1076C0.173204 22.0355 0.0216108 22.8592 0.0153296 22.8938C-0.0401234 23.1968 0.0568139 23.5077 0.274595 23.7254C0.452016 23.9028 0.691172 24 0.9375 24C1.21655 24 2.60704 23.6561 2.89251 23.5802C4.72954 23.092 5.30498 22.6726 5.57802 22.3996C6.67461 21.303 6.67461 19.5187 5.57802 18.4221C4.48138 17.3256 2.69714 17.3256 1.6005 18.4221ZM4.25292 21.073C3.95653 21.3545 2.56833 21.7299 2.16937 21.8307C2.26893 21.4366 2.64473 20.0455 2.92636 19.748C3.29175 19.3825 3.88659 19.3823 4.25217 19.748C4.6177 20.1135 4.6177 20.7082 4.25292 21.073ZM12.3459 11.6541C11.2493 10.5575 11.2493 8.7732 12.3459 7.67661C13.4425 6.58002 15.2268 6.58006 16.3234 7.67656C17.42 8.7732 17.42 10.5575 16.3234 11.6541C15.2268 12.7507 13.4426 12.7507 12.3459 11.6541ZM13.6718 10.3282C14.0373 10.6938 14.6321 10.6938 14.9976 10.3282C15.3631 9.96274 15.3631 9.36795 14.9976 9.00242C14.632 8.63675 14.0372 8.63698 13.6718 9.00242C13.3063 9.3679 13.3063 9.9627 13.6718 10.3282Z" fill="white"/>
</svg>
