<svg width="17" height="16" viewBox="0 0 17 16" fill="none" xmlns="http://www.w3.org/2000/svg">
<path fill-rule="evenodd" clip-rule="evenodd" d="M8.33334 -0.00390625C10.4702 -0.00390625 12.4792 0.828247 13.9902 2.33923C15.5012 3.85022 16.3333 5.85925 16.3333 7.99609C16.3333 10.1331 15.5012 12.142 13.9902 13.653C12.4792 15.1639 10.4702 15.9961 8.33334 15.9961C6.1965 15.9961 4.18747 15.1639 2.67648 13.653C1.1655 12.142 0.333344 10.1331 0.333344 7.99609C0.333344 5.85925 1.1655 3.85022 2.67648 2.33923C4.18747 0.828247 6.1965 -0.00390625 8.33334 -0.00390625ZM4.56776 8.57823L6.70123 10.7603C7.01379 11.0799 7.51942 11.0799 7.83198 10.7603L12.0989 6.39622C12.4115 6.07764 12.4115 5.55832 12.0989 5.23975C11.7874 4.92008 11.2797 4.92008 10.9682 5.23975L7.26661 9.02446L5.6985 7.42177C5.38701 7.1021 4.87925 7.1021 4.56776 7.42177C4.2552 7.74034 4.2552 8.25966 4.56776 8.57823Z" fill="#0074D9"/>
</svg>
