<svg width="16" height="16" viewBox="0 0 16 16" fill="none" xmlns="http://www.w3.org/2000/svg">
<path fill-rule="evenodd" clip-rule="evenodd" d="M8 -0.00390625C10.1368 -0.00390625 12.1459 0.828247 13.6569 2.33923C15.1678 3.85022 16 5.85925 16 7.99609C16 10.1331 15.1678 12.142 13.6569 13.653C12.1459 15.1639 10.1368 15.9961 8 15.9961C5.86316 15.9961 3.85413 15.1639 2.34314 13.653C0.832153 12.142 0 10.1331 0 7.99609C0 5.85925 0.832153 3.85022 2.34314 2.33923C3.85413 0.828247 5.86316 -0.00390625 8 -0.00390625ZM4.23442 8.57823L6.36789 10.7603C6.68044 11.0799 7.18608 11.0799 7.49863 10.7603L11.7656 6.39622C12.0781 6.07764 12.0781 5.55832 11.7656 5.23975C11.4541 4.92008 10.9463 4.92008 10.6348 5.23975L6.93326 9.02446L5.36516 7.42177C5.05367 7.1021 4.5459 7.1021 4.23442 7.42177C3.92186 7.74034 3.92186 8.25966 4.23442 8.57823Z" fill="#21430E"/>
</svg>
