<svg width="20" height="20" viewBox="0 0 20 20" fill="none" xmlns="http://www.w3.org/2000/svg">
<path d="M15.4545 0H4.54545C3.94854 0 3.35746 0.117572 2.80598 0.346002C2.2545 0.574433 1.75342 0.909248 1.33133 1.33133C0.478895 2.18377 0 3.33993 0 4.54545V15.4545C0 16.0515 0.117572 16.6425 0.346002 17.194C0.574433 17.7455 0.909248 18.2466 1.33133 18.6687C2.18377 19.5211 3.33993 20 4.54545 20H15.4545C16.0515 20 16.6425 19.8824 17.194 19.654C17.7455 19.4256 18.2466 19.0908 18.6687 18.6687C19.0908 18.2466 19.4256 17.7455 19.654 17.194C19.8824 16.6425 20 16.0515 20 15.4545V4.54545C20 3.94854 19.8824 3.35746 19.654 2.80598C19.4256 2.2545 19.0908 1.75342 18.6687 1.33133C18.2466 0.909248 17.7455 0.574433 17.194 0.346002C16.6425 0.117572 16.0515 0 15.4545 0ZM18.1818 15.4545C18.1818 16.1779 17.8945 16.8716 17.383 17.383C16.8716 17.8945 16.1779 18.1818 15.4545 18.1818H4.54545C3.82214 18.1818 3.12844 17.8945 2.61698 17.383C2.10552 16.8716 1.81818 16.1779 1.81818 15.4545V4.54545C1.81818 3.82214 2.10552 3.12844 2.61698 2.61698C3.12844 2.10552 3.82214 1.81818 4.54545 1.81818H15.4545C16.1779 1.81818 16.8716 2.10552 17.383 2.61698C17.8945 3.12844 18.1818 3.82214 18.1818 4.54545V15.4545ZM15.4545 5.45455H10.7455C10.5544 4.92804 10.2058 4.47315 9.74712 4.15167C9.28845 3.8302 8.74193 3.65775 8.18182 3.65775C7.62171 3.65775 7.07518 3.8302 6.61651 4.15167C6.15784 4.47315 5.80928 4.92804 5.61818 5.45455H4.54545C4.30435 5.45455 4.07312 5.55032 3.90263 5.72081C3.73214 5.8913 3.63636 6.12253 3.63636 6.36364C3.63636 6.60474 3.73214 6.83597 3.90263 7.00646C4.07312 7.17695 4.30435 7.27273 4.54545 7.27273H5.61818C5.80928 7.79923 6.15784 8.25413 6.61651 8.5756C7.07518 8.89707 7.62171 9.06952 8.18182 9.06952C8.74193 9.06952 9.28845 8.89707 9.74712 8.5756C10.2058 8.25413 10.5544 7.79923 10.7455 7.27273H15.4545C15.6957 7.27273 15.9269 7.17695 16.0974 7.00646C16.2679 6.83597 16.3636 6.60474 16.3636 6.36364C16.3636 6.12253 16.2679 5.8913 16.0974 5.72081C15.9269 5.55032 15.6957 5.45455 15.4545 5.45455ZM8.18182 7.27273C8.00202 7.27273 7.82625 7.21941 7.67675 7.11952C7.52725 7.01963 7.41073 6.87765 7.34193 6.71153C7.27312 6.54542 7.25512 6.36263 7.2902 6.18628C7.32527 6.00994 7.41186 5.84795 7.53899 5.72081C7.66613 5.59367 7.82812 5.50709 8.00446 5.47201C8.18081 5.43694 8.3636 5.45494 8.52971 5.52375C8.69583 5.59255 8.83781 5.70907 8.9377 5.85857C9.03759 6.00807 9.09091 6.18384 9.09091 6.36364C9.09091 6.60474 8.99513 6.83597 8.82464 7.00646C8.65416 7.17695 8.42292 7.27273 8.18182 7.27273ZM15.4545 12.7273H14.3818C14.1907 12.2008 13.8422 11.7459 13.3835 11.4244C12.9248 11.1029 12.3783 10.9305 11.8182 10.9305C11.2581 10.9305 10.7115 11.1029 10.2529 11.4244C9.79421 11.7459 9.44564 12.2008 9.25455 12.7273H4.54545C4.30435 12.7273 4.07312 12.8231 3.90263 12.9935C3.73214 13.164 3.63636 13.3953 3.63636 13.6364C3.63636 13.8775 3.73214 14.1087 3.90263 14.2792C4.07312 14.4497 4.30435 14.5455 4.54545 14.5455H9.25455C9.44564 15.072 9.79421 15.5269 10.2529 15.8483C10.7115 16.1698 11.2581 16.3423 11.8182 16.3423C12.3783 16.3423 12.9248 16.1698 13.3835 15.8483C13.8422 15.5269 14.1907 15.072 14.3818 14.5455H15.4545C15.6957 14.5455 15.9269 14.4497 16.0974 14.2792C16.2679 14.1087 16.3636 13.8775 16.3636 13.6364C16.3636 13.3953 16.2679 13.164 16.0974 12.9935C15.9269 12.8231 15.6957 12.7273 15.4545 12.7273ZM11.8182 14.5455C11.6384 14.5455 11.4626 14.4921 11.3131 14.3922C11.1636 14.2924 11.0471 14.1504 10.9783 13.9843C10.9095 13.8181 10.8915 13.6354 10.9266 13.459C10.9616 13.2827 11.0482 13.1207 11.1754 12.9935C11.3025 12.8664 11.4645 12.7798 11.6408 12.7447C11.8172 12.7097 12 12.7277 12.1661 12.7965C12.3322 12.8653 12.4742 12.9818 12.5741 13.1313C12.674 13.2808 12.7273 13.4566 12.7273 13.6364C12.7273 13.8775 12.6315 14.1087 12.461 14.2792C12.2905 14.4497 12.0593 14.5455 11.8182 14.5455Z" fill="white"/>
</svg>
