<svg width="24" height="24" viewBox="0 0 24 24" fill="none" xmlns="http://www.w3.org/2000/svg">
<path fill-rule="evenodd" clip-rule="evenodd" d="M8.25 3.75C8.76778 3.75 9.1875 3.33028 9.1875 2.8125C9.1875 2.29556 9.60806 1.875 10.125 1.875H13.875C14.3919 1.875 14.8125 2.29556 14.8125 2.8125C14.8125 3.33028 15.2322 3.75 15.75 3.75C16.2678 3.75 16.6875 3.33028 16.6875 2.8125C16.6875 1.26169 15.4258 0 13.875 0H10.125C8.57419 0 7.3125 1.26169 7.3125 2.8125C7.3125 3.33028 7.73222 3.75 8.25 3.75ZM19.3125 5.625H4.6875C2.10281 5.625 0 7.72781 0 10.3125V19.3125C0 21.8972 2.10281 24 4.6875 24H19.3125C21.8972 24 24 21.8972 24 19.3125V10.3125C24 7.72781 21.8972 5.625 19.3125 5.625ZM22.125 19.3125C22.125 20.8633 20.8633 22.125 19.3125 22.125H4.6875C3.13669 22.125 1.875 20.8633 1.875 19.3125V10.3125C1.875 8.76169 3.13669 7.5 4.6875 7.5H19.3125C20.8633 7.5 22.125 8.76169 22.125 10.3125V19.3125ZM12.9375 14.25H13.875C14.3928 14.25 14.8125 14.6697 14.8125 15.1875C14.8125 15.7053 14.3928 16.125 13.875 16.125H12.9375V17.0625C12.9375 17.5803 12.5178 18 12 18C11.4822 18 11.0625 17.5803 11.0625 17.0625V16.125H10.125C9.60722 16.125 9.1875 15.7053 9.1875 15.1875C9.1875 14.6697 9.60722 14.25 10.125 14.25H11.0625V13.3125C11.0625 12.7947 11.4822 12.375 12 12.375C12.5178 12.375 12.9375 12.7947 12.9375 13.3125V14.25ZM4.6875 10.5C4.16972 10.5 3.75 10.9197 3.75 11.4375V18.9375C3.75 19.4553 4.16972 19.875 4.6875 19.875C5.20528 19.875 5.625 19.4553 5.625 18.9375V11.4375C5.625 10.9197 5.20528 10.5 4.6875 10.5ZM18.375 11.4375C18.375 10.9197 18.7947 10.5 19.3125 10.5C19.8303 10.5 20.25 10.9197 20.25 11.4375V18.9375C20.25 19.4553 19.8303 19.875 19.3125 19.875C18.7947 19.875 18.375 19.4553 18.375 18.9375V11.4375Z" fill="white"/>
</svg>
