<svg width="24" height="24" viewBox="0 0 24 24" fill="none" xmlns="http://www.w3.org/2000/svg">
<path fill-rule="evenodd" clip-rule="evenodd" d="M19.5 9.69623C20.0178 9.69623 20.4375 9.27652 20.4375 8.75873V8.4375C20.4375 3.78506 16.6524 0 12 0C7.34756 0 3.5625 3.78506 3.5625 8.4375V8.75878C3.5625 9.27656 3.98222 9.69628 4.5 9.69628C5.01778 9.69628 5.4375 9.27656 5.4375 8.75878V8.4375C5.4375 4.81894 8.38144 1.875 12 1.875C15.6186 1.875 18.5625 4.81894 18.5625 8.4375V8.75878C18.5625 9.27652 18.9822 9.69623 19.5 9.69623ZM5.625 17.4375C5.625 18.9883 4.36331 20.25 2.8125 20.25C1.26169 20.25 0 18.9883 0 17.4375V13.6875C0 12.1367 1.26169 10.875 2.8125 10.875C4.36331 10.875 5.625 12.1367 5.625 13.6875V17.4375ZM2.8125 12.75C2.29556 12.75 1.875 13.1706 1.875 13.6875V17.4375C1.875 17.9544 2.29556 18.375 2.8125 18.375C3.32944 18.375 3.75 17.9544 3.75 17.4375V13.6875C3.75 13.1706 3.32944 12.75 2.8125 12.75ZM9.1875 13.6875C9.1875 14.2053 8.76777 14.625 8.25 14.625C7.73223 14.625 7.3125 14.2053 7.3125 13.6875C7.3125 13.1697 7.73223 12.75 8.25 12.75C8.76777 12.75 9.1875 13.1697 9.1875 13.6875ZM12.9375 13.6875C12.9375 14.2053 12.5178 14.625 12 14.625C11.4822 14.625 11.0625 14.2053 11.0625 13.6875C11.0625 13.1697 11.4822 12.75 12 12.75C12.5178 12.75 12.9375 13.1697 12.9375 13.6875ZM15.75 14.625C16.2678 14.625 16.6875 14.2053 16.6875 13.6875C16.6875 13.1697 16.2678 12.75 15.75 12.75C15.2322 12.75 14.8125 13.1697 14.8125 13.6875C14.8125 14.2053 15.2322 14.625 15.75 14.625ZM15.5625 24H12C10.4492 24 9.1875 22.7383 9.1875 21.1875C9.1875 19.6367 10.4492 18.375 12 18.375C13.5508 18.375 14.8125 19.6367 14.8125 21.1875C14.8125 21.5161 14.7553 21.8316 14.6512 22.125H15.5625C17.1133 22.125 18.375 20.8633 18.375 19.3125V13.6875C18.375 12.1367 19.6367 10.875 21.1875 10.875C22.7383 10.875 24 12.1367 24 13.6875V17.4375C24 18.9883 22.7383 20.25 21.1875 20.25C20.836 20.25 20.4996 20.1846 20.1891 20.0663C19.8275 22.2938 17.8906 24 15.5625 24ZM21.1875 12.75C20.6706 12.75 20.25 13.1706 20.25 13.6875V17.4375C20.25 17.9544 20.6706 18.375 21.1875 18.375C21.7044 18.375 22.125 17.9544 22.125 17.4375V13.6875C22.125 13.1706 21.7044 12.75 21.1875 12.75ZM12.9375 21.1875C12.9375 20.6706 12.5169 20.25 12 20.25C11.4831 20.25 11.0625 20.6706 11.0625 21.1875C11.0625 21.7044 11.4831 22.125 12 22.125C12.5169 22.125 12.9375 21.7044 12.9375 21.1875Z" fill="white"/>
</svg>
