<svg width="25" height="24" viewBox="0 0 25 24" fill="none" xmlns="http://www.w3.org/2000/svg">
<path fill-rule="evenodd" clip-rule="evenodd" d="M19.8335 9.69623C20.3513 9.69623 20.771 9.27652 20.771 8.75873V8.4375C20.771 3.78506 16.9859 0 12.3335 0C7.68106 0 3.896 3.78506 3.896 8.4375V8.75878C3.896 9.27656 4.31571 9.69628 4.8335 9.69628C5.35128 9.69628 5.771 9.27656 5.771 8.75878V8.4375C5.771 4.81894 8.71493 1.875 12.3335 1.875C15.9521 1.875 18.896 4.81894 18.896 8.4375V8.75878C18.896 9.27652 19.3157 9.69623 19.8335 9.69623ZM5.9585 17.4375C5.9585 18.9883 4.69681 20.25 3.146 20.25C1.59518 20.25 0.333496 18.9883 0.333496 17.4375V13.6875C0.333496 12.1367 1.59518 10.875 3.146 10.875C4.69681 10.875 5.9585 12.1367 5.9585 13.6875V17.4375ZM3.146 12.75C2.62906 12.75 2.2085 13.1706 2.2085 13.6875V17.4375C2.2085 17.9544 2.62906 18.375 3.146 18.375C3.66293 18.375 4.0835 17.9544 4.0835 17.4375V13.6875C4.0835 13.1706 3.66293 12.75 3.146 12.75ZM9.521 13.6875C9.521 14.2053 9.10126 14.625 8.5835 14.625C8.06573 14.625 7.646 14.2053 7.646 13.6875C7.646 13.1697 8.06573 12.75 8.5835 12.75C9.10126 12.75 9.521 13.1697 9.521 13.6875ZM13.271 13.6875C13.271 14.2053 12.8513 14.625 12.3335 14.625C11.8157 14.625 11.396 14.2053 11.396 13.6875C11.396 13.1697 11.8157 12.75 12.3335 12.75C12.8513 12.75 13.271 13.1697 13.271 13.6875ZM16.0835 14.625C16.6013 14.625 17.021 14.2053 17.021 13.6875C17.021 13.1697 16.6013 12.75 16.0835 12.75C15.5657 12.75 15.146 13.1697 15.146 13.6875C15.146 14.2053 15.5657 14.625 16.0835 14.625ZM15.896 24H12.3335C10.7827 24 9.521 22.7383 9.521 21.1875C9.521 19.6367 10.7827 18.375 12.3335 18.375C13.8843 18.375 15.146 19.6367 15.146 21.1875C15.146 21.5161 15.0888 21.8316 14.9847 22.125H15.896C17.4468 22.125 18.7085 20.8633 18.7085 19.3125V13.6875C18.7085 12.1367 19.9702 10.875 21.521 10.875C23.0718 10.875 24.3335 12.1367 24.3335 13.6875V17.4375C24.3335 18.9883 23.0718 20.25 21.521 20.25C21.1695 20.25 20.8331 20.1846 20.5226 20.0663C20.161 22.2938 18.2241 24 15.896 24ZM21.521 12.75C21.0041 12.75 20.5835 13.1706 20.5835 13.6875V17.4375C20.5835 17.9544 21.0041 18.375 21.521 18.375C22.0379 18.375 22.4585 17.9544 22.4585 17.4375V13.6875C22.4585 13.1706 22.0379 12.75 21.521 12.75ZM13.271 21.1875C13.271 20.6706 12.8504 20.25 12.3335 20.25C11.8166 20.25 11.396 20.6706 11.396 21.1875C11.396 21.7044 11.8166 22.125 12.3335 22.125C12.8504 22.125 13.271 21.7044 13.271 21.1875Z" fill="white"/>
</svg>
