<svg width="24" height="24" viewBox="0 0 24 24" fill="none" xmlns="http://www.w3.org/2000/svg">
<path fill-rule="evenodd" clip-rule="evenodd" d="M6.59996 8.39999C4.31997 8.39999 2.39996 6.47998 2.39996 4.19999C2.39996 1.92001 4.31992 0 6.59996 0C8.87999 0 10.8 1.92001 10.8 4.19999C10.8 6.47998 8.87994 8.39999 6.59996 8.39999ZM6.59996 2.40002C5.63998 2.40002 4.79994 3.24001 4.79994 4.20004C4.79994 5.16007 5.63993 6.00006 6.59996 6.00006C7.55999 6.00006 8.39998 5.16007 8.39998 4.20004C8.39998 3.24001 7.55994 2.40002 6.59996 2.40002ZM18 8.40005C15.96 8.40005 14.4 6.84006 14.4 4.80006C14.4 2.76006 15.96 1.20007 18 1.20007C20.04 1.20007 21.5999 2.76006 21.5999 4.80006C21.5999 6.84006 20.04 8.40005 18 8.40005ZM18 3.60005C17.28 3.60005 16.7999 4.08006 16.7999 4.80006C16.7999 5.52006 17.28 6.00007 18 6.00007C18.7199 6.00007 19.2 5.52006 19.2 4.80006C19.2 4.08006 18.72 3.60005 18 3.60005ZM10.8 15.6C10.8 16.32 11.28 16.8001 12 16.8001C12.72 16.8001 13.2 16.32 13.2 15.6V14.4C13.2 11.76 11.04 9.60004 8.39999 9.60004H4.8C2.15999 9.60004 0 11.76 0 14.4V15.6C0 16.32 0.479966 16.8001 1.19996 16.8001C1.91996 16.8001 2.39998 16.32 2.39998 15.6V14.4C2.39998 13.08 3.48 12 4.8 12H8.39999C9.71999 12 10.8 13.08 10.8 14.4V15.6ZM22.8 16.8001C22.08 16.8001 21.6 16.3201 21.6 15.6001V14.4001C21.6 13.0801 20.76 12.0001 19.56 12.0001H16.3199C15.5999 12.0001 15.1199 11.52 15.1199 10.8C15.1199 10.0801 15.5999 9.60004 16.3199 9.60004H19.56C21.96 9.60004 24 11.76 24 14.4V15.6C23.9999 16.3201 23.52 16.8001 22.8 16.8001ZM20.0399 22.68H20.2799C20.8799 22.56 21.2399 21.84 21.1199 21.2401L20.2799 17.7601C20.1599 17.1601 19.4399 16.8002 18.8399 16.9201L15.3599 17.7601C14.7599 17.8801 14.4 18.6001 14.5199 19.2001C14.6399 19.8001 15.3599 20.1601 15.9599 20.0401L16.44 19.9201C15.2399 21.0001 13.6799 21.6001 11.9999 21.6001C9.71995 21.6001 7.67994 20.4001 6.47993 18.4801C6.11996 17.8801 5.39996 17.7601 4.79995 18.1201C4.19995 18.48 4.07991 19.2 4.43993 19.8C6.11991 22.44 8.87991 24 11.9999 24C14.5199 24 16.92 22.9201 18.6 21.0001L18.8399 21.72C18.9599 22.32 19.4399 22.68 20.0399 22.68Z" fill="white"/>
</svg>
