<svg width="20" height="20" viewBox="0 0 20 20" fill="none" xmlns="http://www.w3.org/2000/svg">
<path d="M17.6562 12.1875H16.0938V11.5625C16.0938 10.2702 15.0423 9.21875 13.75 9.21875H10.7812V7.8125H13.125C14.4173 7.8125 15.4688 6.76109 15.4688 5.46875V2.34375C15.4688 1.05141 14.4173 0 13.125 0H6.875C5.58266 0 4.53125 1.05141 4.53125 2.34375V5.46875C4.53125 6.76109 5.58266 7.8125 6.875 7.8125H9.21875V9.21875H6.25C4.95766 9.21875 3.90625 10.2702 3.90625 11.5625V12.1875H2.34375C1.05141 12.1875 0 13.2389 0 14.5312V17.6562C0 18.9486 1.05141 20 2.34375 20H7.03125C8.32359 20 9.375 18.9486 9.375 17.6562V14.5312C9.375 13.2389 8.32359 12.1875 7.03125 12.1875H5.46875V11.5625C5.46875 11.1317 5.81922 10.7812 6.25 10.7812H13.75C14.1808 10.7812 14.5312 11.1317 14.5312 11.5625V12.1875H12.9688C11.6764 12.1875 10.625 13.2389 10.625 14.5312V17.6562C10.625 18.9486 11.6764 20 12.9688 20H17.6562C18.9486 20 20 18.9486 20 17.6562V14.5312C20 13.2389 18.9486 12.1875 17.6562 12.1875ZM7.03125 13.75C7.46203 13.75 7.8125 14.1005 7.8125 14.5312V17.6562C7.8125 18.087 7.46203 18.4375 7.03125 18.4375H2.34375C1.91297 18.4375 1.5625 18.087 1.5625 17.6562V14.5312C1.5625 14.1005 1.91297 13.75 2.34375 13.75H7.03125ZM6.875 6.25C6.44422 6.25 6.09375 5.89953 6.09375 5.46875V2.34375C6.09375 1.91297 6.44422 1.5625 6.875 1.5625H13.125C13.5558 1.5625 13.9062 1.91297 13.9062 2.34375V5.46875C13.9062 5.89953 13.5558 6.25 13.125 6.25H6.875ZM18.4375 17.6562C18.4375 18.087 18.087 18.4375 17.6562 18.4375H12.9688C12.538 18.4375 12.1875 18.087 12.1875 17.6562V14.5312C12.1875 14.1005 12.538 13.75 12.9688 13.75H17.6562C18.087 13.75 18.4375 14.1005 18.4375 14.5312V17.6562Z" fill="white"/>
</svg>
