<svg width="24" height="24" viewBox="0 0 24 24" fill="none" xmlns="http://www.w3.org/2000/svg">
<path fill-rule="evenodd" clip-rule="evenodd" d="M19.4138 10.5H19.44H19.875C20.0737 10.5 20.265 10.5791 20.4038 10.7197L22.11 12.426C22.2375 12.3926 22.365 12.375 22.5 12.375C23.3288 12.375 24 13.047 24 13.875C24 14.703 23.3288 15.375 22.5 15.375C21.6712 15.375 21 14.703 21 13.875C21 13.7407 21.0188 13.6106 21.0525 13.4865L19.8225 12.2595C19.3462 13.2937 18.6712 14.2286 17.8462 14.9985C17.2275 15.5805 16.8788 16.3912 16.8788 17.2395V17.2571C16.875 17.4191 16.875 17.583 16.875 17.7439C16.875 18.4087 16.6125 19.0459 16.14 19.5161C16.02 19.6361 15.8888 19.743 15.75 19.8353V20.8208C15.75 21.6641 15.4163 22.4726 14.82 23.0689C14.2238 23.6651 13.4138 24 12.57 24C12.195 24 11.805 24 11.43 24C10.5862 24 9.77624 23.6651 9.17999 23.0689C8.58374 22.4726 8.25 21.6641 8.25 20.8208V19.8353C8.11125 19.743 7.97999 19.6361 7.85999 19.5161C7.38749 19.0459 7.125 18.4087 7.125 17.7439V17.2065C7.125 16.3526 6.77251 15.5366 6.14626 14.9531C5.32501 14.1971 4.65376 13.2825 4.17751 12.2588L2.94749 13.4865C2.98124 13.6106 3 13.7407 3 13.875C3 14.703 2.32875 15.375 1.5 15.375C0.67125 15.375 0 14.703 0 13.875C0 13.047 0.67125 12.375 1.5 12.375C1.635 12.375 1.76251 12.3926 1.89001 12.426L3.59624 10.7197C3.73499 10.5791 3.92625 10.5 4.125 10.5H4.56001H4.58624H6.75C7.1625 10.5 7.5 10.836 7.5 11.25C7.5 11.664 7.1625 12 6.75 12H5.72626C6.10126 12.6956 6.58874 13.3215 7.16624 13.8525C7.16624 13.8536 7.17 13.8551 7.17 13.8563C8.1 14.7233 8.625 15.9364 8.625 17.2065V17.7439C8.625 18.0109 8.73001 18.2666 8.92126 18.4552C9.10876 18.6439 9.36377 18.75 9.63002 18.75H11.25V14.9355L9.22124 12.9053C8.92874 12.6128 8.92874 12.1372 9.22124 11.8447C9.51374 11.5519 9.98626 11.5519 10.2788 11.8447L12 13.5645L13.7212 11.8447C14.0137 11.5519 14.4863 11.5519 14.7788 11.8447C15.0713 12.1372 15.0713 12.6128 14.7788 12.9053L12.75 14.9355V18.75H14.37C14.6362 18.75 14.8912 18.6439 15.0787 18.4552C15.27 18.2666 15.375 18.0109 15.375 17.7439C15.375 17.574 15.375 17.4011 15.3788 17.2298C15.3825 15.972 15.9 14.7705 16.815 13.9072C16.8187 13.9065 16.8187 13.9054 16.8187 13.9046C17.4037 13.3586 17.8987 12.7121 18.2775 12H17.25C16.8375 12 16.5 11.664 16.5 11.25C16.5 10.836 16.8375 10.5 17.25 10.5H19.4138ZM14.25 20.25V20.8208C14.25 21.2663 14.0737 21.6934 13.7587 22.0084C13.4437 22.323 13.0163 22.5 12.57 22.5H11.43C10.9837 22.5 10.5563 22.323 10.2413 22.0084C9.92627 21.6934 9.75 21.2663 9.75 20.8208V20.25H14.25ZM21.2025 7.5H15.75C15.3375 7.5 15 7.836 15 8.25C15 8.664 15.3375 9 15.75 9H21.2025C21.4613 9.44813 21.945 9.75 22.5 9.75C23.3288 9.75 24 9.078 24 8.25C24 7.422 23.3288 6.75 22.5 6.75C21.945 6.75 21.4613 7.05187 21.2025 7.5ZM2.79749 9C2.53874 9.44813 2.055 9.75 1.5 9.75C0.67125 9.75 0 9.078 0 8.25C0 7.422 0.67125 6.75 1.5 6.75C2.055 6.75 2.53874 7.05187 2.79749 7.5H8.25C8.6625 7.5 9 7.836 9 8.25C9 8.664 8.6625 9 8.25 9H2.79749ZM4.42877 4.49325C5.89502 1.8165 8.7375 0 12 0C15.2625 0 18.105 1.8165 19.5712 4.49325L21.0525 3.0135C21.0188 2.88938 21 2.75925 21 2.625C21 1.797 21.6712 1.125 22.5 1.125C23.3288 1.125 24 1.797 24 2.625C24 3.453 23.3288 4.125 22.5 4.125C22.365 4.125 22.2375 4.10738 22.11 4.07401L20.4038 5.78025C20.265 5.92088 20.0737 6 19.875 6H19.1288C19.1213 6 19.1137 6 19.1062 6H17.25C16.8375 6 16.5 5.664 16.5 5.25C16.5 4.836 16.8375 4.5 17.25 4.5H17.8087C16.5187 2.685 14.3962 1.5 12 1.5C9.60375 1.5 7.485 2.685 6.19125 4.5H6.75C7.1625 4.5 7.5 4.836 7.5 5.25C7.5 5.664 7.1625 6 6.75 6H5.03998C4.93498 6.02475 4.81877 6.02587 4.70627 6H4.125C3.92625 6 3.73499 5.92088 3.59624 5.78025L1.89001 4.07401C1.76251 4.10738 1.635 4.125 1.5 4.125C0.67125 4.125 0 3.453 0 2.625C0 1.797 0.67125 1.125 1.5 1.125C2.32875 1.125 3 1.797 3 2.625C3 2.75925 2.98124 2.88938 2.94749 3.0135L4.42877 4.49325Z" fill="#111111"/>
</svg>
