<svg width="24" height="24" viewBox="0 0 24 24" fill="none" xmlns="http://www.w3.org/2000/svg">
<path fill-rule="evenodd" clip-rule="evenodd" d="M22.5416 4.5293C22.5416 4.93286 22.4548 5.3584 22.2821 5.80481C23.4016 7.65527 24 9.78168 24 12C24 15.2053 22.7518 18.2188 20.4853 20.4853C18.2188 22.7518 15.2053 24 12 24C8.79474 24 5.78119 22.7518 3.51471 20.4853C1.24823 18.2188 0 15.2053 0 12C0 9.78168 0.598206 7.65527 1.7179 5.80481C1.54523 5.35858 1.45844 4.93286 1.45844 4.52948C1.45844 2.89307 2.78979 1.56171 4.42603 1.56171C4.85266 1.56171 5.26428 1.65161 5.63983 1.8197C7.52838 0.634644 9.71539 0 12 0C14.2846 0 16.4714 0.634644 18.3602 1.81952C18.7357 1.65161 19.1473 1.56171 19.574 1.56171C21.2102 1.56171 22.5416 2.89307 22.5416 4.5293ZM19.3076 7.6051C20.4695 6.39569 21.1095 5.30347 21.1095 4.5293C21.1095 3.68262 20.4207 2.99377 19.574 2.99377C19.0963 2.99377 18.6537 3.21075 18.36 3.58887C18.2245 3.76355 18.0157 3.86591 17.7944 3.86591C17.5732 3.86591 17.3644 3.76373 17.2288 3.58887C16.9352 3.21075 16.4929 2.99377 16.015 2.99377C15.1683 2.99377 14.4794 3.68262 14.4794 4.52948C14.4794 5.98425 16.6143 8.03229 17.7927 8.9978C18.1675 8.69037 18.741 8.1947 19.3076 7.6051ZM5.64001 3.58887C5.34631 3.21075 4.90393 2.99377 4.42603 2.99377C3.57935 2.99377 2.8905 3.68262 2.89069 4.5293C2.89069 5.30347 3.53046 6.39569 4.69244 7.6051C5.25824 8.19379 5.83081 8.6889 6.20563 8.99634C6.58063 8.6889 7.1532 8.19379 7.71881 7.6051C8.8808 6.39569 9.52075 5.30347 9.52075 4.5293C9.52075 3.68262 8.83191 2.99377 7.98523 2.99377C7.50732 2.99377 7.06476 3.21075 6.77124 3.58887C6.63556 3.76355 6.42682 3.86572 6.20563 3.86572C5.98444 3.86572 5.7757 3.76355 5.64001 3.58887ZM1.43207 12C1.43207 17.8271 6.17285 22.5679 12 22.5679C17.8271 22.5679 22.5679 17.8271 22.5679 12C22.5679 10.3044 22.166 8.70135 21.4534 7.27972C21.143 7.70966 20.7673 8.15405 20.3256 8.61237C19.2885 9.68903 18.264 10.452 18.221 10.4841C18.0943 10.5778 17.9443 10.6249 17.7944 10.6249C17.6446 10.6249 17.4946 10.578 17.3679 10.4841C17.3249 10.452 16.3004 9.68903 15.2633 8.61237C13.7928 7.08636 13.0474 5.71252 13.0474 4.52948C13.0474 3.3186 13.7767 2.27545 14.8187 1.81439C13.921 1.56573 12.976 1.43207 12 1.43207C11.024 1.43207 10.079 1.56573 9.18127 1.81439C10.2235 2.27545 10.9528 3.3186 10.9528 4.52948C10.9528 5.71252 10.2072 7.08636 8.73688 8.61237C7.69958 9.68903 6.67511 10.452 6.63208 10.4841C6.50537 10.578 6.35559 10.6249 6.20563 10.6249C6.05566 10.6249 5.9057 10.578 5.77917 10.4841C5.73596 10.452 4.71149 9.68903 3.67438 8.61237C3.23273 8.15405 2.85699 7.70966 2.54681 7.27972C1.83398 8.70135 1.43207 10.3044 1.43207 12ZM4.8554 11.2839H19.1446C19.5399 11.2839 19.8605 11.6045 19.8605 12C19.8605 16.3343 16.3343 19.8605 12 19.8605C7.6657 19.8605 4.13946 16.3343 4.13946 12C4.13946 11.6045 4.46008 11.2839 4.8554 11.2839ZM7.94567 16.9847C9.05255 17.8868 10.4641 18.4285 12 18.4285C13.5359 18.4285 14.9474 17.8868 16.0545 16.9847C14.9128 16.0521 13.4982 15.5458 12 15.5458C10.5018 15.5458 9.08715 16.0521 7.94567 16.9847ZM12 14.1138C13.8774 14.1138 15.6475 14.764 17.0608 15.9591C17.7783 15.0441 18.2536 13.9307 18.3889 12.7161H5.61108C5.74639 13.9307 6.22174 15.0441 6.93914 15.9591C8.35253 14.764 10.1226 14.1138 12 14.1138Z" fill="#111111"/>
</svg>
