<svg width="24" height="24" viewBox="0 0 24 24" fill="none" xmlns="http://www.w3.org/2000/svg">
<path fill-rule="evenodd" clip-rule="evenodd" d="M21.7429 0H12.7252C11.5054 0 10.5665 0.973655 10.5665 2.18745V5.91343C10.5665 6.38115 10.919 6.76019 11.3889 6.76019C11.8588 6.76019 12.2114 6.38115 12.2114 5.91343V2.18745C12.2114 1.90747 12.4436 1.63731 12.7252 1.63731H21.7429C22.0244 1.63731 22.3551 1.90747 22.3551 2.18745V16.7524C22.3551 17.2202 22.7076 17.5992 23.1775 17.5992C23.6474 17.5992 24 17.2202 24 16.7524V2.18745C24 0.973655 22.9626 0 21.7429 0ZM15.0745 14.0692C14.8089 14.0692 14.5646 14.1668 14.3867 14.3437L11.927 16.7917C8.85864 15.9038 7.634 13.429 7.23209 12.3314L9.89083 9.68498C10.2067 9.37061 10.2505 8.93154 10.0211 8.38004C9.49249 7.11003 6.05515 2.30343 4.11386 2.30343C3.76679 2.30343 3.4452 2.43332 3.20779 2.66964L0.619774 5.24568C-1.01747 6.87562 0.624709 14.344 5.12412 18.8223C8.69826 22.3799 13.5491 24 16.5437 24C17.6157 23.9997 18.3784 23.782 18.8104 23.3516L21.3984 20.7759C21.5843 20.5908 21.9783 20.0685 21.6238 19.2169C20.9093 17.5007 16.3192 14.0692 15.0745 14.0692ZM16.5437 22.3062C14.3286 22.3627 9.77816 21.0597 6.32738 17.6246C1.99657 13.3138 1.31366 7.23501 1.83537 6.43082L4.22764 4.04962C4.60021 4.24037 7.24223 6.34459 8.35173 8.82184L5.81088 11.3507C5.49341 11.6669 5.37908 12.1289 5.51287 12.5566C5.86242 13.6721 7.34751 17.3981 11.7825 18.5071C11.795 18.5102 11.8121 18.5186 11.8341 18.5294C11.9795 18.6007 12.3349 18.775 12.9276 18.1905L15.2653 15.8639C16.433 16.4247 19.532 18.7863 20.012 19.7599C20.0123 19.7599 17.7972 22.2743 16.5437 22.3062ZM19.3604 5.18481H14.9366C14.4667 5.18481 14.0859 4.69744 14.0859 4.22971C14.0859 3.76199 14.4667 3.27461 14.9366 3.27461H19.3604C19.8303 3.27461 20.2111 3.76199 20.2111 4.22971C20.2111 4.69744 19.8303 5.18481 19.3604 5.18481ZM14.9366 8.73233H19.3604C19.8303 8.73233 20.2111 8.3814 20.2111 7.91367C20.2111 7.44595 19.8303 7.09502 19.3604 7.09502H14.9366C14.4667 7.09502 14.0859 7.44595 14.0859 7.91367C14.0859 8.3814 14.4667 8.73233 14.9366 8.73233ZM19.3604 12.5527H14.9366C14.4667 12.5527 14.0859 12.2018 14.0859 11.7341C14.0859 11.2664 14.4667 10.9154 14.9366 10.9154H19.3604C19.8303 10.9154 20.2111 11.2664 20.2111 11.7341C20.2111 12.2018 19.8303 12.5527 19.3604 12.5527Z" fill="white"/>
</svg>
