<svg width="24" height="22" viewBox="0 0 24 22" fill="none" xmlns="http://www.w3.org/2000/svg">
<path d="M7.71429 11.3697C7.71429 11.7139 8.38225 12.2139 9.42857 12.2139C11.3513 12.2139 12.8571 13.3265 12.8571 14.7465C12.8571 15.9458 11.7779 16.9173 10.2857 17.193V18.1232H8.57143V17.193C7.07928 16.9173 6 15.9458 6 14.7465H7.71429C7.71429 15.0907 8.38225 15.5907 9.42857 15.5907C10.4749 15.5907 11.1429 15.0907 11.1429 14.7465C11.1429 14.4023 10.4749 13.9023 9.42857 13.9023C7.50586 13.9023 6 12.7898 6 11.3697C6 10.1704 7.07928 9.19894 8.57143 8.92323V7.99299H10.2857V8.92323C11.7779 9.19894 12.8571 10.1704 12.8571 11.3697H11.1429C11.1429 11.0256 10.4749 10.5256 9.42857 10.5256C8.38225 10.5256 7.71429 11.0256 7.71429 11.3697ZM24 10.5256V15.5907C24 16.5218 23.2312 17.2791 22.2857 17.2791H21.4286V18.9674C21.4286 20.364 20.2751 21.5 18.8571 21.5H2.57143C1.15346 21.5 0 20.364 0 18.9674V7.1488C0 5.75227 1.15346 4.61624 2.57143 4.61624H3.02726L5.73884 1.41138C6.22893 0.832234 6.9488 0.5 7.71429 0.5C8.47977 0.5 9.19964 0.832234 9.68973 1.41138L10.7143 2.62242L11.7388 1.41138C12.2289 0.832234 12.9488 0.5 13.7143 0.5C14.4798 0.5 15.1996 0.832234 15.6897 1.41138L18.4013 4.61624H18.8571C20.2751 4.61624 21.4286 5.75227 21.4286 7.1488V8.83718H22.2857C23.2312 8.83718 24 9.59439 24 10.5256ZM11.8299 3.94095L12.4013 4.61624H16.1702L14.373 2.49217C14.1491 2.22795 13.8641 2.18838 13.7143 2.18838C13.5645 2.18838 13.2794 2.22795 13.0555 2.49217L11.8299 3.94095ZM5.25837 4.61624H10.1702L8.37305 2.49217C8.14914 2.22795 7.86412 2.18838 7.71429 2.18838C7.56445 2.18838 7.27944 2.22795 7.05552 2.49217L5.25837 4.61624ZM19.7143 17.2791C17.3513 17.2791 15.4286 15.3854 15.4286 13.0581C15.4286 10.7308 17.3513 8.83718 19.7143 8.83718V7.1488C19.7143 6.68343 19.3297 6.30462 18.8571 6.30462H2.57143C2.09891 6.30462 1.71429 6.68343 1.71429 7.1488V18.9674C1.71429 19.4328 2.09891 19.8116 2.57143 19.8116H18.8571C19.3297 19.8116 19.7143 19.4328 19.7143 18.9674V17.2791ZM22.287 15.5907L22.2857 10.5256H19.7143C18.2963 10.5256 17.1429 11.6616 17.1429 13.0581C17.1429 14.4547 18.2963 15.5907 19.7143 15.5907H22.287Z" fill="white"/>
</svg>
