<svg width="20" height="18" viewBox="0 0 20 18" fill="none" xmlns="http://www.w3.org/2000/svg">
<path d="M10.0001 0.666504C10.1952 0.666504 10.3823 0.737854 10.5203 0.864862L13.1269 3.26517C13.2609 3.39294 13.3351 3.56407 13.3334 3.74171C13.3318 3.91934 13.2544 4.08926 13.118 4.21487C12.9816 4.34048 12.797 4.41173 12.6041 4.41327C12.4112 4.41482 12.2254 4.34653 12.0866 4.22312L10.7358 2.97927L10.7358 7.48903C10.7358 7.6687 10.6583 7.84102 10.5204 7.96808C10.3824 8.09513 10.1952 8.1665 10.0001 8.1665C9.805 8.1665 9.61786 8.09513 9.47989 7.96808C9.34192 7.84102 9.2644 7.6687 9.2644 7.48903L9.2644 2.97927L7.91362 4.22312C7.77486 4.34653 7.58902 4.41482 7.39612 4.41327C7.20321 4.41173 7.01868 4.34048 6.88228 4.21487C6.74587 4.08926 6.66849 3.91934 6.66682 3.74171C6.66514 3.56407 6.7393 3.39294 6.87331 3.26517L9.47997 0.864862C9.61794 0.737854 9.80504 0.666504 10.0001 0.666504Z" fill="#8AA43E"/>
<path d="M19.5431 13.5416C18.2497 11.3893 14.412 9.94023 9.99879 9.94151C6.29317 9.94009 2.91533 10.9762 1.18506 12.6421C0.903114 12.9098 0.657976 13.2112 0.45564 13.5389C0.163365 14.0102 0.00618087 14.5478 0.00012207 15.0967C0.000313917 15.1992 0.00701696 15.3017 0.0201939 15.4034L0.088497 15.7742C0.138762 15.9786 0.210238 16.1775 0.301847 16.3681C0.468966 16.7058 0.747553 16.9807 1.09409 17.1499C1.44063 17.3191 1.83561 17.373 2.21734 17.3032L4.99672 16.8291C5.22762 16.7896 5.44817 16.7066 5.64576 16.5849C5.84334 16.4633 6.0141 16.3054 6.14826 16.1202C6.28243 15.9349 6.37738 15.7261 6.42769 15.5056C6.478 15.285 6.48269 15.0571 6.44147 14.8348L6.2774 13.944C7.5059 13.7287 8.75266 13.6248 10.0013 13.6336C11.2493 13.6258 12.4954 13.7304 13.7231 13.9462L13.5588 14.8346C13.476 15.284 13.582 15.7467 13.8534 16.1209C14.1247 16.4952 14.5393 16.7505 15.006 16.8306L17.7833 17.3069C18.1649 17.3735 18.5585 17.3183 18.9045 17.1497C19.2505 16.9812 19.5299 16.7085 19.7002 16.3731C19.7937 16.1765 19.8656 15.971 19.9146 15.76L19.9815 15.3899C19.9942 15.294 20.0004 15.1974 20.0001 15.1007C19.9942 14.5512 19.8364 14.0131 19.5431 13.5416Z" fill="#8AA43E"/>
</svg>
