<svg width="24" height="24" viewBox="0 0 24 24" fill="none" xmlns="http://www.w3.org/2000/svg">
<path fill-rule="evenodd" clip-rule="evenodd" d="M7.10826 10.0346C7.27232 10.1987 7.49121 10.2857 7.71429 10.2857C7.82478 10.2857 7.9361 10.2644 8.04241 10.2204C8.36258 10.0878 8.57143 9.77511 8.57143 9.42857V7.71429C9.9894 7.71429 11.1429 6.56083 11.1429 5.14286V2.57143C11.1429 1.15346 9.9894 0 8.57143 0H2.57143C1.15346 0 0 1.15346 0 2.57143V5.14286C0 6.56083 1.15346 7.71429 2.57143 7.71429H4.78795L7.10826 10.0346ZM1.71429 2.57143C1.71429 2.09891 2.09891 1.71429 2.57143 1.71429H8.57143C9.04394 1.71429 9.42857 2.09891 9.42857 2.57143V5.14286C9.42857 5.61537 9.04394 6 8.57143 6H7.71429C7.24093 6 6.85714 6.38379 6.85714 6.85714V7.35938L5.74888 6.25112C5.58817 6.0904 5.37012 6 5.14286 6H2.57143C2.09891 6 1.71429 5.61537 1.71429 5.14286V2.57143ZM23.1429 19.7143H22.2857V11.1429C22.2857 9.72489 21.1323 8.57143 19.7143 8.57143H9.42857V10.2857H19.7143C20.1868 10.2857 20.5714 10.6703 20.5714 11.1429V19.7143H3.42857V11.1429C3.42857 10.6703 3.8132 10.2857 4.28571 10.2857H6.1469L4.43262 8.57143H4.28571C2.86775 8.57143 1.71429 9.72489 1.71429 11.1429V19.7143H0.857143C0.383789 19.7143 0 20.0981 0 20.5714C0 22.4619 1.53809 24 3.42857 24H20.5714C22.4619 24 24 22.4619 24 20.5714C24 20.0981 23.6162 19.7143 23.1429 19.7143ZM3.42857 22.2857C2.79534 22.2857 2.24121 21.9404 1.94448 21.4286H22.0555C21.7588 21.9404 21.2047 22.2857 20.5714 22.2857H3.42857ZM9.42857 13.7143C9.42857 15.1323 10.582 16.2857 12 16.2857H11.1429C9.72489 16.2857 8.57143 17.4392 8.57143 18.8571H10.2857C10.2857 18.3846 10.6703 18 11.1429 18H12.8571C13.3297 18 13.7143 18.3846 13.7143 18.8571H15.4286C15.4286 17.4392 14.2751 16.2857 12.8571 16.2857H12C13.418 16.2857 14.5714 15.1323 14.5714 13.7143C14.5714 12.2963 13.418 11.1429 12 11.1429C10.582 11.1429 9.42857 12.2963 9.42857 13.7143ZM11.1429 13.7143C11.1429 13.2418 11.5275 12.8571 12 12.8571C12.4725 12.8571 12.8571 13.2418 12.8571 13.7143C12.8571 14.1868 12.4725 14.5714 12 14.5714C11.5275 14.5714 11.1429 14.1868 11.1429 13.7143Z" fill="white"/>
</svg>
