<svg width="25" height="24" viewBox="0 0 25 24" fill="none" xmlns="http://www.w3.org/2000/svg">
<path fill-rule="evenodd" clip-rule="evenodd" d="M4.08325 15V13.0308C1.94631 12.5952 0.333252 10.7012 0.333252 8.4375V4.6875C0.333252 2.10281 2.43606 0 5.02075 0H12.3333C14.918 0 17.0208 2.10281 17.0208 4.6875V8.4375C17.0208 11.0222 14.918 13.125 12.3333 13.125H8.22156L5.6837 15.6629C5.41558 15.931 5.01236 16.0112 4.66202 15.8661C4.31167 15.721 4.08325 15.3792 4.08325 15ZM5.02075 1.875C3.46994 1.875 2.20825 3.13669 2.20825 4.6875V8.4375C2.20825 9.98831 3.46994 11.25 5.02075 11.25C5.53853 11.25 5.95825 11.6697 5.95825 12.1875V12.7367L7.1703 11.5246C7.34613 11.3488 7.58458 11.25 7.83325 11.25H12.3333C13.8841 11.25 15.1458 9.98831 15.1458 8.4375V4.6875C15.1458 3.13669 13.8841 1.875 12.3333 1.875H5.02075ZM19.5874 8.4375H19.6458C22.2305 8.4375 24.3333 10.5403 24.3333 13.125V16.5C24.3333 18.7637 22.7202 20.6578 20.5833 21.0933V23.0625C20.5833 23.4417 20.3548 23.7835 20.0045 23.9286C19.6555 24.0732 19.252 23.9946 18.9828 23.7254L16.4449 21.1875H12.3333C9.74852 21.1875 7.64575 19.0847 7.64575 16.5V16.1787C7.64575 15.6609 8.06547 15.2412 8.58325 15.2412C9.10103 15.2412 9.52075 15.6609 9.52075 16.1787V16.5C9.52075 18.0508 10.7824 19.3125 12.3333 19.3125H16.8333C17.0819 19.3125 17.3204 19.4113 17.4962 19.5871L18.7083 20.7992V20.25C18.7083 19.7322 19.128 19.3125 19.6458 19.3125C21.1966 19.3125 22.4583 18.0508 22.4583 16.5V13.125C22.4583 11.5742 21.1966 10.3125 19.6458 10.3125H19.5874C19.0697 10.3125 18.6499 9.89278 18.6499 9.375C18.6499 8.85721 19.0697 8.4375 19.5874 8.4375ZM5.02075 5.625H12.3333C12.851 5.625 13.2708 5.20528 13.2708 4.6875C13.2708 4.16972 12.851 3.75 12.3333 3.75H5.02075C4.50297 3.75 4.08325 4.16972 4.08325 4.6875C4.08325 5.20528 4.50297 5.625 5.02075 5.625ZM13.2708 8.4375C13.2708 8.95528 12.851 9.375 12.3333 9.375H5.02075C4.50297 9.375 4.08325 8.95528 4.08325 8.4375C4.08325 7.91971 4.50297 7.5 5.02075 7.5H12.3333C12.851 7.5 13.2708 7.91971 13.2708 8.4375Z" fill="#111111"/>
</svg>
