<svg width="24" height="24" viewBox="0 0 24 24" fill="none" xmlns="http://www.w3.org/2000/svg">
<path fill-rule="evenodd" clip-rule="evenodd" d="M20.3023 10.4084C20.9847 9.62967 22.1765 9.44048 23.0828 10.0617C24.0425 10.7195 24.289 12.0359 23.632 12.9963L21.67 15.8656C21.6677 15.8689 21.6658 15.8719 21.6639 15.8747C21.6626 15.8768 21.6613 15.8787 21.66 15.8806L21.6545 15.8892C21.6189 15.9423 21.5691 15.9859 20.568 16.8635L20.568 16.8636L20.5654 16.8658C20.2247 17.1645 19.7741 17.5595 19.1768 18.084V23.2969C19.1768 23.6852 18.862 24 18.4736 24C18.0853 24 17.7705 23.6852 17.7705 23.2969V17.7656C17.7705 17.5633 17.8576 17.3708 18.0097 17.2373L20.559 14.9988L22.471 12.2025C22.6905 11.8815 22.6081 11.4415 22.2873 11.2216C21.965 11.0008 21.5255 11.0831 21.305 11.4057L20.1793 13.053C20.0053 13.3075 19.6857 13.419 19.3911 13.328C19.0964 13.237 18.8955 12.9646 18.8955 12.6562V3.51562C18.8955 3.12792 18.58 2.8125 18.1923 2.8125C17.8296 2.8125 17.4892 3.09478 17.4892 3.53906V8.53125C17.4892 8.91956 17.1744 9.23438 16.786 9.23438C16.3976 9.23438 16.0828 8.91956 16.0828 8.53125V2.10938C16.0828 1.72167 15.7674 1.40625 15.3796 1.40625C14.9919 1.40625 14.6765 1.72167 14.6765 2.10938V9.74756C15.6336 9.94716 16.3549 10.7971 16.3549 11.8125V18.4957C16.3549 19.8658 15.8577 21.1595 14.9485 22.1707V23.2969C14.9485 23.6852 14.6337 24 14.2454 24C13.857 24 13.5422 23.6852 13.5422 23.2969V21.8906C13.5422 21.7041 13.6162 21.5253 13.7481 21.3934C14.5222 20.6194 14.9486 19.5903 14.9486 18.4957V11.8125C14.9486 11.4248 14.6332 11.1094 14.2454 11.1094C13.8577 11.1094 13.5422 11.4248 13.5422 11.8125V14.1562C13.5422 14.5446 13.2274 14.8594 12.8391 14.8594C12.4507 14.8594 12.1359 14.5446 12.1359 14.1562V9.23438C12.1359 8.84667 11.8205 8.53125 11.4327 8.53125C11.045 8.53125 10.7295 8.84667 10.7295 9.23438V14.1562C10.7295 14.5446 10.4147 14.8594 10.0264 14.8594C9.63799 14.8594 9.32318 14.5446 9.32318 14.1562V8.53125C9.32318 8.14355 9.00776 7.82812 8.62001 7.82812C8.23225 7.82812 7.91683 8.14355 7.91683 8.53125V14.1562C7.91683 14.5446 7.60202 14.8594 7.21366 14.8594C6.8253 14.8594 6.51048 14.5446 6.51048 14.1562V9.96094C6.51048 9.51975 6.1734 9.23438 5.80731 9.23438C5.41955 9.23438 5.10413 9.5498 5.10413 9.9375V17.6719C5.10413 17.9802 4.90322 18.2526 4.60857 18.3436C4.31414 18.4347 3.99431 18.3232 3.82036 18.0686L2.69461 16.4213C2.47411 16.0987 2.03456 16.0164 1.71229 16.2373C1.39157 16.4572 1.30916 16.8972 1.52868 17.2182L3.43453 20.0054L6.25492 22.3327C6.41678 22.4662 6.51053 22.6651 6.51053 22.875V23.2969C6.51053 23.6852 6.19571 24 5.80735 24C5.41899 24 5.10418 23.6852 5.10418 23.2969V23.2064L2.46267 21.0267C2.45665 21.0217 2.45145 21.0177 2.44664 21.0139L2.43779 21.007C2.3826 20.9626 2.34088 20.9015 1.4971 19.6652L1.49704 19.6651C1.21809 19.2564 0.85149 18.7193 0.367769 18.0119C-0.288906 17.0515 -0.0423422 15.7351 0.91724 15.0773C1.82306 14.4564 3.0149 14.6448 3.69783 15.424V9.9375C3.69783 8.45508 5.19962 7.42584 6.58492 7.97723C6.74059 7.40616 7.13055 6.93103 7.64491 6.66169V4.92188C7.64491 3.47048 9.08641 2.44716 10.4577 2.93344V2.8125C10.4577 1.1985 12.2052 0.185203 13.6024 0.975609C13.9776 0.389578 14.6339 0 15.38 0C16.3515 0 17.1712 0.660234 17.4152 1.55536C18.7997 1.00425 20.3023 2.03208 20.3023 3.51562V10.4084ZM9.0513 4.92188V6.46631C9.61521 6.58392 10.0968 6.92752 10.3977 7.39748C10.4175 7.38628 10.4374 7.37541 10.4577 7.36481V4.92188C10.4577 4.53417 10.1422 4.21875 9.75448 4.21875C9.36673 4.21875 9.0513 4.53417 9.0513 4.92188ZM11.864 2.8125V7.16944C12.4671 7.29516 12.976 7.6793 13.2704 8.20017V2.8125C13.2704 2.4248 12.9549 2.10938 12.5672 2.10938C12.1794 2.10938 11.864 2.4248 11.864 2.8125ZM4.3403 4.34091C4.06571 4.61555 3.62039 4.6155 3.34584 4.34091L2.36137 3.35653C2.08673 3.08194 2.08673 2.63677 2.36137 2.36217C2.63597 2.08758 3.08123 2.08758 3.35583 2.36217L4.3403 3.34655C4.61494 3.62114 4.61494 4.06631 4.3403 4.34091ZM6.10595 2.32608C6.2065 2.70117 6.59205 2.92378 6.96724 2.82323C7.34238 2.72273 7.56494 2.33719 7.46444 1.96209L7.10444 0.618656C7.00389 0.243515 6.61848 0.0209995 6.24315 0.121499C5.86801 0.221999 5.64545 0.607546 5.74595 0.98264L6.10595 2.32608ZM1.96123 7.4648L0.617649 7.1048C0.242554 7.0043 0.0199437 6.61875 0.120444 6.24366C0.220991 5.86856 0.606774 5.64595 0.981729 5.7465L2.32531 6.1065C2.70041 6.207 2.92302 6.59255 2.82252 6.96764C2.72202 7.34259 2.33652 7.56534 1.96123 7.4648Z" fill="#111111"/>
</svg>
