<svg width="16" height="16" viewBox="0 0 16 16" fill="none" xmlns="http://www.w3.org/2000/svg">
<path fill-rule="evenodd" clip-rule="evenodd" d="M8 16C12.4183 16 16 12.4183 16 8C16 3.58172 12.4183 0 8 0C3.58172 0 0 3.58172 0 8C0 12.4183 3.58172 16 8 16ZM6.23823 10.7916C6.23823 11.9273 6.8243 13 7.99997 13C9.1757 13 9.7617 11.9272 9.7617 10.7914C9.76156 10.192 10.1151 9.79974 10.4917 9.39931C12.0416 7.7484 11.7592 4.90803 9.95736 3.62588C8.78463 2.79136 7.21528 2.79139 6.04254 3.62588C4.24033 4.90828 3.95871 7.74868 5.50861 9.39978C5.8829 9.7977 6.23823 10.1828 6.23823 10.7916ZM7.41416 10.7648C7.41003 10.6708 7.40606 10.5801 7.39762 10.4982H8.60181C8.59368 10.5793 8.58984 10.6689 8.58586 10.7618C8.56641 11.2157 8.54357 11.7491 7.99997 11.7491C7.45733 11.7491 7.43403 11.2179 7.41416 10.7648ZM9.03504 9.24737H6.96362C6.81285 9.01147 6.64017 8.80939 6.47075 8.61113C6.13314 8.21604 5.8085 7.83614 5.69612 7.23401C5.41493 5.72776 6.54043 4.24443 8 4.24443C9.45961 4.24443 10.585 5.72779 10.3038 7.23403C10.1912 7.8375 9.86567 8.21795 9.52701 8.61376C9.35802 8.81127 9.18576 9.0126 9.03504 9.24737Z" fill="#222222"/>
</svg>
