<svg width="25" height="24" viewBox="0 0 25 24" fill="none" xmlns="http://www.w3.org/2000/svg">
<path fill-rule="evenodd" clip-rule="evenodd" d="M22.3162 8.76369C22.3747 8.95079 22.8419 9.34561 23.1225 9.5823L23.1242 9.58371C23.8113 10.1654 24.6667 10.8897 24.6667 11.9958C24.6667 13.1121 23.799 13.8583 23.1007 14.4578L23.0865 14.4701C22.8103 14.708 22.3628 15.0935 22.3043 15.2692C22.2499 15.4549 22.4 16.0719 22.4903 16.4432L22.4908 16.4454C22.7219 17.3953 22.9837 18.4734 22.3738 19.3447C21.769 20.2102 20.7167 20.285 19.7878 20.351L19.7822 20.3514C19.4093 20.3773 18.7855 20.4207 18.6278 20.5416C18.4698 20.6626 18.2407 21.2495 18.0993 21.612L18.0922 21.63L18.0902 21.6353C17.7406 22.5332 17.3455 23.5479 16.3775 23.8915C15.3954 24.2419 14.4695 23.6282 13.7267 23.1359L13.7205 23.1318C13.3852 22.9085 12.8775 22.5715 12.6662 22.5715C12.4523 22.5715 11.9448 22.9057 11.6027 23.131L11.5921 23.138L11.5799 23.146C10.9622 23.5512 10.2781 24 9.53719 24C9.34875 24 9.15534 23.971 8.95997 23.9039C7.98646 23.5764 7.5887 22.5517 7.23772 21.6476L7.23726 21.6465L7.23685 21.6454C7.09501 21.2804 6.85925 20.6738 6.7027 20.555C6.55087 20.4398 5.96799 20.3974 5.59719 20.3704L5.56214 20.3679L5.55998 20.3677C4.6747 20.3057 3.57511 20.2287 2.9498 19.3674C2.30893 18.4817 2.59007 17.3547 2.81606 16.4488L2.8169 16.4454C2.91014 16.0764 3.06483 15.4583 3.00534 15.2681C2.94483 15.0758 2.49754 14.6883 2.20101 14.4319C1.51772 13.8407 0.666748 13.1038 0.666748 11.9947C0.666748 10.8794 1.53296 10.1346 2.22995 9.53528L2.23186 9.53364L2.23738 9.5289C2.5137 9.2917 2.97016 8.89987 3.02925 8.72226C3.0838 8.53856 2.93557 7.9311 2.8438 7.55499L2.83884 7.53468C2.60676 6.59307 2.34398 5.5264 2.93011 4.66128C3.52679 3.78123 4.58804 3.70633 5.52484 3.64021L5.52656 3.64009C5.90147 3.61425 6.52926 3.57082 6.68597 3.44991C6.8454 3.32783 7.07718 2.73235 7.21832 2.36976L7.22151 2.36155L7.22526 2.35195C7.57445 1.45713 7.96977 0.44407 8.93728 0.101089C9.92409 -0.248297 10.8603 0.380129 11.6091 0.887648L11.6145 0.891264C11.9536 1.12072 12.4601 1.46336 12.6663 1.46336C12.8797 1.46336 13.3859 1.131 13.729 0.905733L13.7424 0.89693L13.7431 0.896489C14.5214 0.382921 15.4059 -0.200622 16.3736 0.128983C17.3465 0.455605 17.7452 1.48095 18.0953 2.38534C18.2371 2.75021 18.4741 3.359 18.6318 3.47785C18.7839 3.59294 19.3759 3.63607 19.7463 3.66305L19.7724 3.66496L19.7746 3.66511C20.6629 3.72713 21.7673 3.80424 22.3817 4.67687C22.9991 5.5558 22.7243 6.67216 22.5032 7.57001L22.5027 7.57196C22.4105 7.94406 22.2568 8.56936 22.3162 8.76369ZM20.4239 14.616C20.66 13.8769 21.26 13.3612 21.8402 12.864L21.8489 12.8565C22.1215 12.6213 22.6106 12.1993 22.6802 12C22.6087 11.8128 22.1561 11.4283 21.8943 11.206L21.8739 11.1886C21.3096 10.7121 20.6699 10.1716 20.4308 9.40154C20.1942 8.63796 20.3994 7.80124 20.5807 7.0621L20.5816 7.05838C20.6748 6.68423 20.8286 6.0558 20.7681 5.87388C20.6511 5.80012 20.0292 5.75579 19.6513 5.72886L19.6414 5.72815C18.8777 5.67544 18.0892 5.62068 17.4714 5.15556C16.8497 4.68951 16.5482 3.91351 16.2566 3.16324L16.2565 3.16281L16.2539 3.15605C16.1128 2.79357 15.8796 2.19469 15.7279 2.08065C15.6194 2.10531 15.1136 2.4391 14.8074 2.64109L14.8015 2.64498C14.1727 3.05944 13.4577 3.53076 12.6672 3.53076C11.8728 3.53076 11.1587 3.04806 10.53 2.62222L10.5236 2.61795C10.2184 2.41177 9.71442 2.07125 9.53222 2.06819C9.441 2.16018 9.20194 2.7721 9.06112 3.13902C8.77251 3.88112 8.47397 4.64804 7.85808 5.11834C7.23623 5.59274 6.43387 5.6496 5.65931 5.70334C5.29036 5.72918 4.67348 5.77261 4.52175 5.88628C4.51004 6.00519 4.66141 6.62096 4.7551 7.00212L4.75978 7.02116L4.76157 7.02848C4.95344 7.81173 5.15179 8.62144 4.90954 9.37673C4.67348 10.1158 4.07344 10.6315 3.49326 11.1297C3.21361 11.3685 2.69292 11.816 2.64829 12.0103C2.69086 12.1691 3.19565 12.6069 3.46779 12.8429L3.4695 12.8444C4.0259 13.3261 4.65567 13.8729 4.89272 14.6346C5.12801 15.395 4.92084 16.2271 4.73781 16.9623L4.73601 16.9695C4.64179 17.3416 4.48608 17.9669 4.54758 18.1499C4.66861 18.2357 5.33606 18.2822 5.69409 18.307C6.45675 18.3597 7.24425 18.4145 7.86211 18.8785C8.48395 19.3447 8.78545 20.1209 9.07701 20.8724L9.08328 20.8885C9.22469 21.2518 9.45418 21.8415 9.60562 21.9545C9.7086 21.9311 10.1704 21.6277 10.4788 21.4251C10.4971 21.4131 10.5148 21.4014 10.5319 21.3902L10.5374 21.3866C11.1668 20.9719 11.8781 20.5034 12.6672 20.5034C13.4552 20.5034 14.1605 20.9708 14.7829 21.3833L14.7886 21.3871L14.8132 21.4034C15.1178 21.6053 15.6007 21.9256 15.7764 21.9256C15.8746 21.8325 16.1127 21.2196 16.2535 20.8537L16.2537 20.8532C16.5422 20.1112 16.8408 19.3435 17.4565 18.8733C18.0774 18.3986 18.9108 18.3402 19.6468 18.2886L19.6503 18.2883C20.0222 18.2635 20.6441 18.2191 20.7948 18.1012C20.8154 17.9712 20.6639 17.3465 20.5714 16.965L20.5687 16.9539L20.5682 16.9517C20.3789 16.1731 20.1832 15.3677 20.4239 14.616ZM15.7052 8.23036C16.0553 7.79314 16.6791 7.7332 17.1016 8.10115C17.5221 8.46705 17.5766 9.11824 17.2256 9.55644L12.1081 15.9338C11.9296 16.156 11.6707 16.2904 11.391 16.3028C11.3771 16.3048 11.3622 16.3048 11.3484 16.3048C11.0855 16.3048 10.8326 16.1974 10.6472 16.002L7.9991 13.2423C7.6113 12.8382 7.6113 12.1849 7.9991 11.7808C8.38685 11.3766 9.01366 11.3766 9.40146 11.7808L11.2829 13.7405L15.7052 8.23036Z" fill="white"/>
</svg>
