<svg width="22" height="24" viewBox="0 0 22 24" fill="none" xmlns="http://www.w3.org/2000/svg">
<path fill-rule="evenodd" clip-rule="evenodd" d="M19.5832 6.25631L21.4772 20.832C21.4924 20.9505 21.5 21.0695 21.5 21.1875C21.5 22.7383 20.2154 24 18.6364 24H3.36364C1.78463 24 0.5 22.7383 0.5 21.1875C0.5 21.0693 0.507589 20.9502 0.522575 20.8335L2.41678 6.25631C2.47648 5.79666 2.87901 5.4375 3.36364 5.4375H6.22727V4.6875C6.22727 2.10281 8.36832 0 11 0C13.6317 0 15.7727 2.10281 15.7727 4.6875V5.4375H18.6364C19.111 5.4375 19.5225 5.78906 19.5832 6.25631ZM11 1.875C9.42099 1.875 8.13636 3.13669 8.13636 4.6875V5.4375H13.8636V4.6875C13.8636 3.13669 12.579 1.875 11 1.875ZM3.36364 22.125H18.6364C19.1627 22.125 19.5909 21.7044 19.5909 21.1875C19.5909 21.1474 19.5883 21.1071 19.5833 21.0677L17.7959 7.3125H4.20411L2.41649 21.0694C2.41167 21.1072 2.40909 21.1474 2.40909 21.1875C2.40909 21.7044 2.8373 22.125 3.36364 22.125ZM13.8636 10.125C13.8636 9.60722 14.291 9.1875 14.8182 9.1875C15.3454 9.1875 15.7727 9.60722 15.7727 10.125C15.7727 12.7097 13.6317 14.8125 11 14.8125C8.36832 14.8125 6.22727 12.7097 6.22727 10.125C6.22727 9.60722 6.65462 9.1875 7.18182 9.1875C7.70901 9.1875 8.13636 9.60722 8.13636 10.125C8.13636 11.6758 9.42099 12.9375 11 12.9375C12.579 12.9375 13.8636 11.6758 13.8636 10.125Z" fill="white"/>
</svg>
