<svg width="24" height="24" viewBox="0 0 24 24" fill="none" xmlns="http://www.w3.org/2000/svg">
<path d="M21 4.09091H18V3.06818C17.9991 2.25472 17.6828 1.47484 17.1204 0.899636C16.5579 0.324434 15.7954 0.000893331 15 0H9C8.20462 0.000893331 7.44206 0.324434 6.87964 0.899636C6.31722 1.47484 6.00087 2.25472 6 3.06818V4.09091H3C2.20462 4.0918 1.44206 4.41534 0.879644 4.99055C0.317225 5.56575 0.000873479 6.34563 0 7.15909V20.9318C0.000873479 21.7453 0.317225 22.5252 0.879644 23.1004C1.44206 23.6756 2.20462 23.9991 3 24H21C21.7954 23.9991 22.5579 23.6756 23.1204 23.1004C23.6828 22.5252 23.9991 21.7453 24 20.9318V7.15909C23.9991 6.34563 23.6828 5.56575 23.1204 4.99055C22.5579 4.41534 21.7954 4.0918 21 4.09091ZM8 3.06818C8.00024 2.79701 8.10567 2.53702 8.29316 2.34527C8.48064 2.15353 8.73486 2.0457 9 2.04545H15C15.2651 2.0457 15.5194 2.15353 15.7068 2.34527C15.8943 2.53702 15.9998 2.79701 16 3.06818V4.09091H8V3.06818ZM3 6.13636H21C21.2651 6.13661 21.5194 6.24444 21.7068 6.43618C21.8943 6.62793 21.9998 6.88792 22 7.15909V9.98782L14.6962 12.7018C14.5183 12.4048 14.2691 12.1593 13.9721 11.9887C13.6752 11.8181 13.3406 11.7281 13 11.7273H11C10.6594 11.7281 10.3248 11.8181 10.0279 11.9887C9.73095 12.1593 9.48168 12.4048 9.3038 12.7018L2 9.98782V7.15909C2.00024 6.88792 2.10567 6.62793 2.29316 6.43618C2.48064 6.24444 2.73486 6.13661 3 6.13636ZM13 13.7727V15.8182H11V13.7727H13ZM21 21.9545H3C2.73486 21.9543 2.48064 21.8465 2.29316 21.6547C2.10567 21.463 2.00024 21.203 2 20.9318V12.1645L9 14.7656V15.8182C9.00061 16.3605 9.21152 16.8804 9.58646 17.2639C9.9614 17.6473 10.4698 17.863 11 17.8636H13C13.5302 17.863 14.0386 17.6473 14.4135 17.2639C14.7885 16.8804 14.9994 16.3605 15 15.8182V14.7656L22 12.1645V20.9318C21.9998 21.203 21.8943 21.463 21.7068 21.6547C21.5194 21.8465 21.2651 21.9543 21 21.9545Z" fill="white"/>
</svg>
