<svg width="12" height="12" viewBox="0 0 12 12" fill="none" xmlns="http://www.w3.org/2000/svg">
<path fill-rule="evenodd" clip-rule="evenodd" d="M8.95013 2.90156C8.95013 4.50405 7.62864 5.80313 5.9985 5.80313C4.36836 5.80313 3.04688 4.50405 3.04688 2.90156C3.04688 1.29907 4.36836 0 5.9985 0C7.62864 0 8.95013 1.29907 8.95013 2.90156ZM8.09571 6.25782C7.51397 6.62814 6.78679 6.8461 6.00001 6.8461C5.21084 6.8461 4.48605 6.62814 3.90193 6.26017C3.4537 5.97657 2.8648 6.02345 2.46903 6.37735C1.36992 7.3547 0.745259 8.74689 0.750027 10.2047V10.8305C0.750027 11.4774 1.28409 12 1.94212 12H10.0579C10.7159 12 11.25 11.4774 11.25 10.8305V10.2047C11.2524 8.74454 10.6277 7.3547 9.52861 6.37501C9.13284 6.0211 8.54632 5.97423 8.09571 6.25782Z" fill="white"/>
</svg>
