<svg width="10" height="16" viewBox="0 0 10 16" fill="none" xmlns="http://www.w3.org/2000/svg"> <path d="M0.253576 8.62432L7.32339 15.7444C7.4869 15.9092 7.70518 16 7.93793 16C8.17067 16 8.38895 15.9092 8.55247 15.7444L9.07311 15.2202C9.4119 14.8786 9.4119 14.3234 9.07311 13.9823L3.13642 8.00332L9.0797 2.01767C9.24321 1.85286 9.3335 1.63316 9.3335 1.39888C9.3335 1.16435 9.24321 0.944642 9.0797 0.779699L8.55906 0.255608C8.39541 0.0907961 8.17726 -1.01081e-07 7.94451 -1.21429e-07C7.71177 -1.41776e-07 7.49349 0.090796 7.32997 0.255607L0.253576 7.38218C0.0896725 7.54751 -0.000351504 7.76826 0.000164731 8.00293C-0.000351545 8.2385 0.0896724 8.45912 0.253576 8.62432Z" fill="#111111"/> </svg> 