<svg width="17" height="12" viewBox="0 0 17 12" fill="none" xmlns="http://www.w3.org/2000/svg">
<path d="M0.50393 5.99922C0.502806 5.7993 0.542363 5.60125 0.620201 5.41713C0.69804 5.23301 0.812505 5.06666 0.956664 4.92823L5.80214 0.358301C5.93058 0.234621 6.08338 0.139117 6.25082 0.077894C6.41825 0.0166712 6.59661 -0.00892288 6.7745 0.00274748C6.95238 0.0144178 7.12586 0.0630965 7.28387 0.145671C7.44188 0.228245 7.58094 0.342898 7.69214 0.482299C7.92755 0.772722 8.04605 1.14065 8.02442 1.51395C8.00279 1.88725 7.84258 2.23901 7.57519 2.50027L5.37637 4.57024H15.1572C15.5215 4.5918 15.8639 4.7518 16.1142 5.01751C16.3645 5.28322 16.5039 5.63457 16.5039 5.99972C16.5039 6.36486 16.3645 6.71621 16.1142 6.98192C15.8639 7.24763 15.5215 7.40763 15.1572 7.42919H5.38134L7.58019 9.49916C7.84758 9.76042 8.00779 10.1122 8.02942 10.4855C8.05105 10.8588 7.93255 11.2267 7.69714 11.5171C7.58601 11.6566 7.44703 11.7713 7.28906 11.854C7.13109 11.9367 6.9576 11.9854 6.77971 11.9972C6.60183 12.009 6.42344 11.9835 6.25597 11.9223C6.0885 11.8612 5.93565 11.7658 5.80714 11.6421L0.961666 7.0722C0.816356 6.93397 0.700807 6.76749 0.622092 6.58298C0.543378 6.39848 0.503179 6.19983 0.50393 5.99922Z" fill="#111111"/>
</svg>
