<svg width="24" height="24" viewBox="0 0 24 24" fill="none" xmlns="http://www.w3.org/2000/svg">
<path d="M11.625 4.95961C11.5461 6.19456 5.98331 6.1932 5.90625 4.95956C5.98519 3.72465 11.5479 3.72601 11.625 4.95961ZM5.625 12.2756V11.3377C5.57892 10.0945 3.79566 10.0954 3.75 11.3377V12.2756C3.79608 13.5188 5.57934 13.5178 5.625 12.2756ZM9.375 12.9791V12.0411C9.32892 10.798 7.54566 10.7989 7.5 12.0411V12.9791C7.54608 14.2222 9.32934 14.2213 9.375 12.9791ZM12.1875 11.1032C11.6697 11.1032 11.25 11.5231 11.25 12.0411V12.9791C11.2961 14.2222 13.0793 14.2213 13.125 12.9791V12.0411C13.125 11.5231 12.7053 11.1032 12.1875 11.1032ZM15.9375 13.917C16.4553 13.917 16.875 13.4971 16.875 12.9791V12.0411C16.8289 10.798 15.0457 10.7989 15 12.0411V12.9791C15 13.4971 15.4197 13.917 15.9375 13.917ZM20.625 12.9791V12.0411C20.5789 10.798 18.7957 10.7989 18.75 12.0411V12.9791C18.7961 14.2222 20.5793 14.2213 20.625 12.9791ZM20.625 20.0137V19.0758C20.5789 17.8326 18.7957 17.8335 18.75 19.0758V20.0137C18.7961 21.2569 20.5793 21.2559 20.625 20.0137ZM15.9375 20.9517C16.4553 20.9517 16.875 20.5317 16.875 20.0137V19.0758C16.8289 17.8326 15.0457 17.8335 15 19.0758V20.0137C15 20.5317 15.4197 20.9517 15.9375 20.9517ZM24 12.5101V19.5447C24 22.0014 22.0023 24 19.5469 24H15.7031C14.4606 23.9539 14.4615 22.1698 15.7031 22.1241H19.5469C20.9685 22.1241 22.125 20.967 22.125 19.5447V16.1409C21.3969 16.6598 20.5069 16.9654 19.5469 16.9654H15.7031C14.4606 16.9193 14.4615 15.1351 15.7031 15.0895H19.5469C22.9633 14.9594 22.9607 10.0596 19.5469 9.93074C19.5469 9.93074 8.7818 9.93074 8.55469 9.93074C6.36998 9.93074 4.30139 9.47251 2.73 8.6405C2.42025 8.47645 2.13483 8.30077 1.875 8.11482V12.0411C1.875 12.6038 2.40394 13.2303 3.32625 13.7603C3.77527 14.0182 3.93023 14.5915 3.67238 15.0407C3.41447 15.4899 2.84138 15.6449 2.3925 15.387C0.849656 14.5005 0 13.3123 0 12.0411V4.95961C0.321516 -1.65149 16.7852 -1.65491 17.1094 4.95961V8.05484H19.5469C22.0023 8.05484 24 10.0535 24 12.5101ZM15.2344 4.95961C15.2344 4.25685 14.6031 3.51952 13.5023 2.93673C10.948 1.51738 6.16139 1.51738 3.60703 2.93673C1.31461 4.14603 1.31489 5.77332 3.60703 6.98253C6.16139 8.40188 10.948 8.40188 13.5023 6.98253C14.6031 6.39969 15.2344 5.66237 15.2344 4.95961ZM8.4375 20.4827C8.95528 20.4827 9.375 20.0628 9.375 19.5447C9.32906 18.3019 7.54575 18.3022 7.5 19.5447C7.5 20.0628 7.91972 20.4827 8.4375 20.4827ZM12.8906 16.0274V23.062C12.8906 23.5801 12.4709 24 11.9531 24H7.5C5.43225 24 3.75 22.3169 3.75 20.2482V18.8413C3.75 16.7725 5.43225 15.0895 7.5 15.0895H11.9531C12.4709 15.0895 12.8906 15.5094 12.8906 16.0274ZM11.0156 16.9654H7.5C6.46613 16.9654 5.625 17.8069 5.625 18.8413V20.2482C5.625 21.2826 6.46613 22.1241 7.5 22.1241H11.0156V16.9654Z" fill="white"/>
</svg>
