<svg width="24" height="24" viewBox="0 0 24 24" fill="none" xmlns="http://www.w3.org/2000/svg">
<path fill-rule="evenodd" clip-rule="evenodd" d="M2.8125 24C1.26169 24 0 22.7383 0 21.1875C0 19.9653 0.783844 18.9233 1.875 18.5363V14.6512C0.783844 14.2642 0 13.2222 0 12C0 10.7778 0.783844 9.73575 1.875 9.3488V5.46375C0.783844 5.0767 0 4.03467 0 2.8125C0 1.26169 1.26169 0 2.8125 0C4.36331 0 5.625 1.26169 5.625 2.8125C5.625 4.03467 4.84116 5.07675 3.75 5.46375V9.34875C4.84116 9.73575 5.625 10.7778 5.625 12C5.625 13.2222 4.84116 14.2642 3.75 14.6512V18.5363C4.84116 18.9233 5.625 19.9653 5.625 21.1875C5.625 22.7383 4.36331 24 2.8125 24ZM1.875 21.1875C1.875 21.7044 2.29556 22.125 2.8125 22.125C3.32944 22.125 3.75 21.7044 3.75 21.1875C3.75 20.6706 3.32944 20.25 2.8125 20.25C2.29556 20.25 1.875 20.6706 1.875 21.1875ZM3.75 2.8125C3.75 2.29556 3.32944 1.875 2.8125 1.875C2.29556 1.875 1.875 2.29556 1.875 2.8125C1.875 3.32944 2.29556 3.75 2.8125 3.75C3.32944 3.75 3.75 3.32944 3.75 2.8125ZM3.75 12C3.75 11.4831 3.32944 11.0625 2.8125 11.0625C2.29556 11.0625 1.875 11.4831 1.875 12C1.875 12.5169 2.29556 12.9375 2.8125 12.9375C3.32944 12.9375 3.75 12.5169 3.75 12ZM10.125 18.375H21.1875C22.7383 18.375 24 19.6367 24 21.1875C24 22.7383 22.7383 24 21.1875 24H10.125C8.57419 24 7.3125 22.7383 7.3125 21.1875C7.3125 19.6367 8.57419 18.375 10.125 18.375ZM10.125 22.125H21.1875C21.7044 22.125 22.125 21.7044 22.125 21.1875C22.125 20.6706 21.7044 20.25 21.1875 20.25H10.125C9.60806 20.25 9.1875 20.6706 9.1875 21.1875C9.1875 21.7044 9.60806 22.125 10.125 22.125ZM21.1875 0H10.125C8.57419 0 7.3125 1.26169 7.3125 2.8125C7.3125 4.36331 8.57419 5.625 10.125 5.625H21.1875C22.7383 5.625 24 4.36331 24 2.8125C24 1.26169 22.7383 0 21.1875 0ZM21.1875 3.75H10.125C9.60806 3.75 9.1875 3.32944 9.1875 2.8125C9.1875 2.29556 9.60806 1.875 10.125 1.875H21.1875C21.7044 1.875 22.125 2.29556 22.125 2.8125C22.125 3.32944 21.7044 3.75 21.1875 3.75ZM10.125 9.1875H21.1875C22.7383 9.1875 24 10.4492 24 12C24 13.5508 22.7383 14.8125 21.1875 14.8125H10.125C8.57419 14.8125 7.3125 13.5508 7.3125 12C7.3125 10.4492 8.57419 9.1875 10.125 9.1875ZM10.125 12.9375H21.1875C21.7044 12.9375 22.125 12.5169 22.125 12C22.125 11.4831 21.7044 11.0625 21.1875 11.0625H10.125C9.60806 11.0625 9.1875 11.4831 9.1875 12C9.1875 12.5169 9.60806 12.9375 10.125 12.9375Z" fill="#111111"/>
</svg>
