<svg width="12" height="12" viewBox="0 0 12 12" fill="none" xmlns="http://www.w3.org/2000/svg">
<path fill-rule="evenodd" clip-rule="evenodd" d="M6 0C2.694 0 0 2.694 0 6C0 9.306 2.694 12 6 12C9.306 12 12 9.306 12 6C12 2.694 9.306 0 6 0ZM6 10.8C3.354 10.8 1.2 8.646 1.2 6C1.2 3.354 3.354 1.2 6 1.2C8.646 1.2 10.8 3.354 10.8 6C10.8 8.646 8.646 10.8 6 10.8ZM6.3 2.42399C5.772 2.33999 5.238 2.48399 4.836 2.82599C4.434 3.16799 4.2 3.66599 4.2 4.19999C4.2 4.52999 4.47 4.79999 4.8 4.79999C5.13 4.79999 5.4 4.52999 5.4 4.19999C5.4 4.02599 5.478 3.85799 5.61 3.74399C5.748 3.62999 5.922 3.58199 6.102 3.61199C6.378 3.65999 6.6 3.94799 6.6 4.26599C6.6 4.44599 6.528 4.62599 6.396 4.75799C5.754 5.39999 5.4 6.25799 5.4 7.20599C5.4 7.53599 5.67 7.78799 6 7.78799C6.33 7.78799 6.6 7.49999 6.6 7.16999C6.6 6.58199 6.828 6.02999 7.248 5.60999C7.608 5.24999 7.8 4.77599 7.8 4.27199C7.8 3.35999 7.152 2.57399 6.3 2.42999V2.42399ZM6.336 8.50202C6.366 8.52001 6.426 8.57402 6.426 8.57402C6.48 8.63402 6.522 8.69402 6.552 8.77202C6.582 8.84402 6.6 8.92202 6.6 9.00002C6.6 9.16201 6.54 9.31201 6.426 9.42601C6.366 9.48001 6.3 9.52202 6.228 9.55202C6.156 9.58202 6.078 9.60002 6 9.60002C5.922 9.60002 5.844 9.58202 5.772 9.55202C5.7 9.52202 5.634 9.48001 5.574 9.42601C5.46 9.31201 5.4 9.16201 5.4 9.00002C5.4 8.92202 5.418 8.84402 5.448 8.77202C5.478 8.69402 5.52 8.63402 5.574 8.57402C5.712 8.43602 5.922 8.37002 6.114 8.41201C6.156 8.41801 6.192 8.43001 6.228 8.44801C6.264 8.46001 6.3 8.47801 6.336 8.50202Z" fill="#111111"/>
</svg>
