<svg width="16" height="12" viewBox="0 0 16 12" fill="none" xmlns="http://www.w3.org/2000/svg">
<path d="M16.0039 6.00078C16.005 6.2007 15.9655 6.39875 15.8876 6.58287C15.8098 6.76699 15.6953 6.93334 15.5511 7.07177L10.7057 11.6417C10.5772 11.7654 10.4244 11.8609 10.257 11.9221C10.0896 11.9833 9.9112 12.0089 9.73332 11.9973C9.55543 11.9856 9.38195 11.9369 9.22394 11.8543C9.06593 11.7718 8.92688 11.6571 8.81568 11.5177C8.58026 11.2273 8.46176 10.8594 8.48339 10.4861C8.50502 10.1127 8.66523 9.76099 8.93262 9.49973L11.1314 7.42976L1.35061 7.42976C0.986289 7.40819 0.643949 7.2482 0.393623 6.98249C0.143297 6.71678 0.00390622 6.36542 0.00390625 6.00028C0.00390628 5.63514 0.143297 5.28379 0.393623 5.01808C0.64395 4.75237 0.98629 4.59237 1.35061 4.57081L11.1265 4.57081L8.92762 2.50084C8.66023 2.23958 8.50002 1.88782 8.47839 1.51452C8.45676 1.14122 8.57526 0.773288 8.81068 0.482865C8.9218 0.343394 9.06079 0.228658 9.21876 0.145993C9.37673 0.0633293 9.55022 0.0145562 9.7281 0.00279165C9.90598 -0.00897295 10.0844 0.0165326 10.2518 0.0776732C10.4193 0.138814 10.5722 0.234244 10.7007 0.357867L15.5461 4.9278C15.6915 5.06603 15.807 5.23251 15.8857 5.41702C15.9644 5.60152 16.0046 5.80017 16.0039 6.00078Z" fill="#0074D9"/>
</svg>
