<svg width="25" height="24" viewBox="0 0 25 24" fill="none" xmlns="http://www.w3.org/2000/svg">
<path d="M2.93796 23.25H5.72014C6.75968 23.25 7.62832 22.544 7.89736 21.5892C8.41029 21.6512 8.91663 21.753 9.40368 21.9407C10.4413 22.2852 11.6869 23.0388 13.7405 23.0761L20.1418 23.1982C20.1613 23.1982 20.1799 23.1987 20.1985 23.1987C21.5568 23.1987 22.7433 22.1996 22.9709 20.8542L24.6271 11.0368C24.7667 10.2073 24.5314 9.36698 23.9816 8.7304C23.4318 8.09334 22.6047 7.74159 21.7971 7.75722L16.6555 7.87007C17.1184 6.60083 17.4407 5.18844 17.4758 4.27144C17.511 3.34662 17.176 2.46871 16.5315 1.7994C15.8899 1.13253 14.9915 0.75 14.0394 0.75C13.1497 0.75 12.3909 1.38755 12.2357 2.26449C11.9515 3.85178 10.6 6.66581 9.07166 8.21401C8.74012 8.59373 8.31459 8.87941 7.83877 9.04582C7.51382 8.18793 6.69047 7.57353 5.72014 7.57353H2.93796C1.68504 7.57353 0.666504 8.59312 0.666504 9.84624V20.9773C0.666504 22.2304 1.68504 23.25 2.93796 23.25ZM10.5365 9.57461C12.1331 7.96143 13.7435 4.93635 14.178 2.75548C14.5257 2.78235 14.847 2.93331 15.0911 3.18687C15.3548 3.46094 15.4915 3.81905 15.4778 4.19474C15.4505 4.89825 15.1624 6.12743 14.7767 7.18318C14.5501 7.80461 14.6419 8.4959 15.0237 9.03233C15.4016 9.5624 16.0052 9.84917 16.6702 9.86139L21.8381 9.75831C21.8439 9.75782 21.8498 9.75782 21.8566 9.75782C22.1769 9.75782 22.3771 9.9332 22.468 10.0387C22.5617 10.1467 22.7101 10.3768 22.6545 10.7041L20.9982 20.521C20.9328 20.9094 20.591 21.1976 20.1985 21.1976C20.1926 21.1976 20.1819 21.1971 20.1819 21.1971L13.7776 21.075C12.1597 21.0471 11.222 20.4458 10.1234 20.0735C9.43396 19.8077 8.7201 19.6362 7.9916 19.562V11.1116L8.46229 10.9508C9.28064 10.6719 10.0121 10.1799 10.5365 9.57461ZM2.66648 9.84624C2.66648 9.69626 2.78854 9.57461 2.93796 9.57461H5.72014C5.86956 9.57461 5.99162 9.69626 5.99162 9.84624V20.9773C5.99162 21.1273 5.86956 21.2489 5.72014 21.2489H2.93796C2.78854 21.2489 2.66648 21.1273 2.66648 20.9773V9.84624Z" fill="#111111"/>
</svg>
