<svg width="10" height="16" viewBox="0 0 10 16" fill="none" xmlns="http://www.w3.org/2000/svg"> <path d="M9.41342 7.37568L2.34361 0.255608C2.18009 0.090796 1.96181 0 1.72907 0C1.49632 0 1.27804 0.090796 1.11452 0.255608L0.593882 0.779831C0.255096 1.12142 0.255096 1.6766 0.593882 2.01767L6.53057 7.99668L0.587295 13.9823C0.423779 14.1471 0.333496 14.3668 0.333496 14.6011C0.333496 14.8357 0.423779 15.0554 0.587295 15.2203L1.10794 15.7444C1.27158 15.9092 1.48973 16 1.72248 16C1.95522 16 2.1735 15.9092 2.33702 15.7444L9.41342 8.61782C9.57732 8.45248 9.66734 8.23174 9.66683 7.99707C9.66734 7.7615 9.57732 7.54088 9.41342 7.37568Z" fill="#111111"/> </svg> 