<svg width="96" height="16" viewBox="0 0 96 16" fill="none" xmlns="http://www.w3.org/2000/svg">
<path d="M7.18512 0.61907C7.44161 -0.206356 8.55839 -0.206357 8.81488 0.619068L10.116 4.80641C10.2307 5.17555 10.5597 5.42548 10.9309 5.42548H15.1415C15.9716 5.42548 16.3167 6.53608 15.6452 7.04622L12.2387 9.63414C11.9384 9.86228 11.8127 10.2667 11.9274 10.6358L13.2286 14.8232C13.4851 15.6486 12.5816 16.335 11.9101 15.8248L8.50362 13.2369C8.20332 13.0088 7.79668 13.0088 7.49638 13.2369L4.08991 15.8248C3.41841 16.335 2.51491 15.6486 2.7714 14.8232L4.07256 10.6358C4.18727 10.2667 4.06161 9.86228 3.7613 9.63414L0.354834 7.04622C-0.316663 6.53608 0.0284404 5.42548 0.858456 5.42548H5.06909C5.44028 5.42548 5.76926 5.17555 5.88396 4.80641L7.18512 0.61907Z" fill="#ccc"/>
<path d="M27.1851 0.61907C27.4416 -0.206356 28.5584 -0.206357 28.8149 0.619068L30.116 4.80641C30.2307 5.17555 30.5597 5.42548 30.9309 5.42548H35.1415C35.9716 5.42548 36.3167 6.53608 35.6452 7.04622L32.2387 9.63414C31.9384 9.86228 31.8127 10.2667 31.9274 10.6358L33.2286 14.8232C33.4851 15.6486 32.5816 16.335 31.9101 15.8248L28.5036 13.2369C28.2033 13.0088 27.7967 13.0088 27.4964 13.2369L24.0899 15.8248C23.4184 16.335 22.5149 15.6486 22.7714 14.8232L24.0726 10.6358C24.1873 10.2667 24.0616 9.86228 23.7613 9.63414L20.3548 7.04622C19.6833 6.53608 20.0284 5.42548 20.8585 5.42548H25.0691C25.4403 5.42548 25.7693 5.17555 25.884 4.80641L27.1851 0.61907Z" fill="#ccc"/>
<path d="M47.1851 0.61907C47.4416 -0.206356 48.5584 -0.206357 48.8149 0.619068L50.116 4.80641C50.2307 5.17555 50.5597 5.42548 50.9309 5.42548H55.1415C55.9716 5.42548 56.3167 6.53608 55.6452 7.04622L52.2387 9.63414C51.9384 9.86228 51.8127 10.2667 51.9274 10.6358L53.2286 14.8232C53.4851 15.6486 52.5816 16.335 51.9101 15.8248L48.5036 13.2369C48.2033 13.0088 47.7967 13.0088 47.4964 13.2369L44.0899 15.8248C43.4184 16.335 42.5149 15.6486 42.7714 14.8232L44.0726 10.6358C44.1873 10.2667 44.0616 9.86228 43.7613 9.63414L40.3548 7.04622C39.6833 6.53608 40.0284 5.42548 40.8585 5.42548H45.0691C45.4403 5.42548 45.7693 5.17555 45.884 4.80641L47.1851 0.61907Z" fill="#ccc"/>
<path d="M67.1851 0.61907C67.4416 -0.206356 68.5584 -0.206357 68.8149 0.619068L70.116 4.80641C70.2307 5.17555 70.5597 5.42548 70.9309 5.42548H75.1415C75.9716 5.42548 76.3167 6.53608 75.6452 7.04622L72.2387 9.63414C71.9384 9.86228 71.8127 10.2667 71.9274 10.6358L73.2286 14.8232C73.4851 15.6486 72.5816 16.335 71.9101 15.8248L68.5036 13.2369C68.2033 13.0088 67.7967 13.0088 67.4964 13.2369L64.0899 15.8248C63.4184 16.335 62.5149 15.6486 62.7714 14.8232L64.0726 10.6358C64.1873 10.2667 64.0616 9.86228 63.7613 9.63414L60.3548 7.04622C59.6833 6.53608 60.0284 5.42548 60.8585 5.42548H65.0691C65.4403 5.42548 65.7693 5.17555 65.884 4.80641L67.1851 0.61907Z" fill="#ccc"/>
<path d="M87.1851 0.61907C87.4416 -0.206356 88.5584 -0.206357 88.8149 0.619068L90.116 4.80641C90.2307 5.17555 90.5597 5.42548 90.9309 5.42548H95.1415C95.9716 5.42548 96.3167 6.53608 95.6452 7.04622L92.2387 9.63414C91.9384 9.86228 91.8127 10.2667 91.9274 10.6358L93.2286 14.8232C93.4851 15.6486 92.5816 16.335 91.9101 15.8248L88.5036 13.2369C88.2033 13.0088 87.7967 13.0088 87.4964 13.2369L84.0899 15.8248C83.4184 16.335 82.5149 15.6486 82.7714 14.8232L84.0726 10.6358C84.1873 10.2667 84.0616 9.86228 83.7613 9.63414L80.3548 7.04622C79.6833 6.53608 80.0284 5.42548 80.8585 5.42548H85.0691C85.4403 5.42548 85.7693 5.17555 85.884 4.80641L87.1851 0.61907Z" fill="#ccc"/>
</svg>
