<svg width="20" height="20" viewBox="0 0 20 20" fill="none" xmlns="http://www.w3.org/2000/svg">
    <path d="M18.6749 6.5986C19.0275 6.07312 19.8543 6.22667 19.985 6.84201C20.0238 7.02518 19.9867 7.21594 19.8817 7.37235L18.5758 9.31717C18.3572 9.64286 17.9098 9.73362 17.5766 9.5199L15.5866 8.24367C15.4266 8.14107 15.3148 7.98053 15.2758 7.79736C15.1452 7.18206 15.841 6.71956 16.3786 7.06451L16.778 7.32084C15.6483 4.34478 12.7049 2.28139 9.37893 2.28139C7.20839 2.28139 5.18508 3.1234 3.68226 4.6522C2.18014 6.18036 1.40073 8.19276 1.48787 10.3183C1.64992 14.2734 5.07657 17.5913 9.12681 17.7146C12.9756 17.8267 16.3277 15.2505 17.1079 11.5788C17.1911 11.1871 17.5843 10.934 17.9836 11.0171C18.3843 11.0984 18.6415 11.4816 18.5583 11.8729C17.6387 16.2378 13.6181 19.3081 9.08051 19.1618C4.18864 19.013 0.203129 15.1536 0.00781639 10.3762C-0.0955946 7.85305 0.82996 5.46417 2.61384 3.64939C4.39877 1.8335 6.80151 0.833496 9.37893 0.833496C13.4579 0.833496 17.0538 3.44687 18.2918 7.16954L18.6749 6.5986Z" fill="currentcolor"/>
    <path fill-rule="evenodd" clip-rule="evenodd" d="M3.90296 9.99979C3.90296 7.04606 6.35483 4.64981 9.37707 4.64981C12.3993 4.64981 14.8586 7.04606 14.8586 9.99979C14.8586 12.9534 12.3993 15.3497 9.37707 15.3497C6.35483 15.3497 3.90296 12.9534 3.90296 9.99979ZM9.37707 10.7237H10.9475C11.3549 10.7237 11.6882 10.3979 11.6882 9.99979C11.6882 9.60162 11.3549 9.27584 10.9475 9.27584H10.1178V8.39983C10.1178 8.00166 9.78448 7.67588 9.37707 7.67588C8.96966 7.67588 8.63632 8.00166 8.63632 8.39983V9.99979C8.63632 10.3979 8.96966 10.7237 9.37707 10.7237Z" fill="currentcolor"/>
</svg>
