<svg width="2480" height="2480" viewBox="0 0 2480 2480" fill="none" xmlns="http://www.w3.org/2000/svg">
<g style="mix-blend-mode:overlay" opacity="0.4">
<g clip-path="url(#clip0_17_17999)">
<path d="M1241.47 1C1435.96 1.73964 1627.55 48.0174 1800.84 136.101C1974.12 224.185 2124.24 351.61 2239.12 508.132C2354 664.653 2430.43 845.892 2462.26 1037.26C2494.08 1228.62 2480.41 1424.77 2422.34 1609.9C2364.28 1795.03 2263.44 1963.97 2127.95 2103.13C1992.46 2242.3 1826.1 2347.79 1642.27 2411.12C1458.43 2474.44 1262.26 2493.83 1069.54 2467.72C877.741 2441.74 694.696 2371.42 534.998 2262.38C678.043 2249.52 814.414 2196.04 927.94 2108.24C1140.98 2189.94 1376.87 2189.77 1589.8 2107.75C1802.91 2025.66 1977.79 1867.45 2080.43 1663.89C2183.08 1460.33 2206.14 1225.98 2145.15 1006.4C2084.15 786.823 1943.45 597.713 1750.42 475.86C1557.38 354.006 1325.81 308.119 1100.73 347.112C875.649 386.106 673.155 507.193 532.627 686.834C392.098 866.476 323.581 1091.83 340.401 1319.07C357.204 1546.07 457.976 1758.75 623.141 1915.81C582.646 2018.33 512.704 2106.65 422.087 2169.69C232.976 2003.53 99.0055 1783.93 37.9728 1540.03C-23.1231 1295.88 -8.23352 1038.97 80.6596 803.464C169.553 567.963 328.235 365.041 535.598 221.692C742.959 78.3445 989.168 1.36427 1241.47 1Z" stroke="#F5F5F5" stroke-width="2"/>
</g>
<g clip-path="url(#clip1_17_17999)">
<path d="M614.934 1599.98C558.684 1501.69 526.239 1391.6 520.208 1278.58C514.177 1165.55 534.726 1052.75 580.208 949.252C625.69 845.752 694.831 754.446 782.064 682.685C869.296 610.925 972.187 560.713 1082.45 536.095C1192.71 511.476 1307.26 513.139 1416.88 540.947C1526.5 568.754 1628.13 621.93 1713.58 696.196C1799.04 770.461 1865.93 863.741 1908.87 968.524C1951.46 1072.45 1969.31 1184.81 1961.04 1296.7C1912.93 1228.72 1846.49 1175.83 1769.5 1144.23C1748.6 1012.93 1679.77 893.958 1576.34 810.399C1472.76 726.722 1341.89 684.541 1209.18 692.056C1076.47 699.57 951.405 756.245 858.31 851.059C765.216 945.874 710.743 1072.05 705.489 1205.05C700.235 1338.05 744.576 1468.36 829.883 1570.64C915.191 1672.93 1035.37 1739.87 1167.05 1758.46C1298.72 1777.05 1432.49 1745.95 1542.33 1671.21C1651.98 1596.6 1729.96 1483.82 1761.16 1354.74C1824.41 1345.41 1889.05 1354.92 1947.02 1382.1C1918.24 1525.71 1846.54 1657.08 1741.39 1758.79C1636.07 1860.68 1502.18 1927.97 1357.54 1951.71C1212.91 1975.44 1064.38 1954.5 931.727 1891.67C799.071 1828.84 688.572 1727.1 614.934 1599.98Z" stroke="#F5F5F5" stroke-width="2"/>
</g>
<g clip-path="url(#clip2_17_17999)">
<path d="M1625.54 1343.8C1609.09 1404.27 1578.7 1460.05 1536.83 1506.64C1494.96 1553.23 1442.78 1589.33 1384.48 1612.04C1326.17 1634.74 1263.39 1643.42 1201.17 1637.36C1138.95 1631.31 1079.03 1610.69 1026.25 1577.18C973.467 1543.66 929.291 1498.18 897.274 1444.4C865.257 1390.62 846.295 1330.04 841.917 1267.54C837.539 1205.03 847.866 1142.35 872.066 1084.54C895.908 1027.59 932.559 976.925 979.141 936.51C971.659 981.602 977.004 1027.9 994.585 1070.07C951.369 1129.75 931.751 1203.36 939.54 1276.64C947.348 1350.11 982.147 1418.01 1037.17 1467.14C1092.19 1516.26 1163.49 1543.09 1237.22 1542.42C1310.95 1541.74 1381.83 1513.61 1436.07 1463.48C1490.32 1413.36 1524.05 1344.84 1530.71 1271.23C1537.37 1197.63 1516.49 1124.21 1472.11 1065.25C1427.74 1006.29 1363.05 966.008 1290.63 952.237C1218.43 938.507 1143.69 952.106 1080.86 990.388C1052.7 969.404 1031.3 940.617 1019.28 907.574C1086.67 862.761 1166.03 839.48 1246.86 840.822C1327.96 842.168 1406.68 868.23 1472.57 915.542C1538.46 962.853 1588.39 1029.17 1615.72 1105.67C1643.04 1182.17 1646.47 1265.23 1625.54 1343.8Z" stroke="#F5F5F5" stroke-width="2"/>
</g>
</g>
<defs>
<clipPath id="clip0_17_17999">
<rect width="2480" height="2480" fill="white"/>
</clipPath>
<clipPath id="clip1_17_17999">
<rect width="1444.88" height="1444.88" fill="white" transform="translate(975.714 2226.87) rotate(-120)"/>
</clipPath>
<clipPath id="clip2_17_17999">
<rect width="800.535" height="800.535" fill="white" transform="translate(1730.23 956.968) rotate(105)"/>
</clipPath>
</defs>
</svg>
