<svg width="3402" height="3176" viewBox="0 0 3402 3176" fill="none" xmlns="http://www.w3.org/2000/svg">
<g opacity="0.1" clip-path="url(#clip0_2024_16440)">
<path d="M1934.16 925C1734.4 925.288 1539.46 986.238 1375.28 1099.74C1211.09 1213.23 1085.45 1373.9 1015.07 1560.36C944.689 1746.83 932.9 1950.25 981.274 2143.56C1029.65 2336.86 1135.89 2510.9 1285.87 2642.51C1358.08 2592.42 1413.78 2522.11 1445.92 2440.45C1315.16 2316.29 1235.38 2148.07 1222.09 1968.49C1208.8 1788.92 1262.94 1610.83 1374 1468.86C1485.05 1326.9 1645.08 1231.21 1822.95 1200.39C2000.83 1169.57 2183.83 1205.84 2336.38 1302.14C2488.93 1398.43 2600.12 1547.88 2648.32 1721.41C2696.53 1894.93 2678.3 2080.13 2597.18 2241C2516.07 2401.86 2377.87 2526.89 2209.46 2591.76C2041.04 2656.64 1854.46 2656.72 1685.99 2591.99C1595.64 2661.97 1486.95 2704.42 1372.98 2714.24C1499.86 2801.28 1645.45 2857.4 1798.04 2878.07C1950.63 2898.74 2105.95 2883.39 2251.5 2833.25C2397.06 2783.11 2528.77 2699.59 2636.05 2589.4C2743.33 2479.22 2823.17 2345.46 2869.14 2198.87C2915.12 2052.29 2925.94 1896.99 2900.74 1745.47C2875.55 1593.96 2815.03 1450.46 2724.07 1326.53C2633.11 1202.6 2514.25 1101.71 2377.05 1031.97C2239.85 962.226 2088.15 925.585 1934.16 925V925Z" fill="url(#paint0_linear_2024_16440)"/>
</g>
<g opacity="0.08" clip-path="url(#clip1_2024_16440)">
<path d="M982.163 1214C782.4 1214.29 587.459 1275.24 423.277 1388.74C259.095 1502.23 133.455 1662.9 63.072 1849.36C-7.3108 2035.83 -19.0999 2239.25 29.2739 2432.56C77.6478 2625.86 183.891 2799.9 333.868 2931.51C406.079 2881.42 461.776 2811.11 493.916 2729.45C363.163 2605.29 283.382 2437.07 270.09 2257.49C256.798 2077.92 310.944 1899.83 421.999 1757.86C533.054 1615.9 693.079 1520.21 870.953 1489.39C1048.83 1458.57 1231.83 1494.84 1384.38 1591.14C1536.93 1687.43 1648.12 1836.88 1696.32 2010.41C1744.53 2183.93 1726.3 2369.13 1645.18 2530C1564.07 2690.86 1425.87 2815.89 1257.46 2880.76C1089.04 2945.64 902.459 2945.72 733.988 2880.99C643.643 2950.97 534.948 2993.42 420.983 3003.24C547.856 3090.28 693.448 3146.4 846.037 3167.07C998.626 3187.74 1153.95 3172.39 1299.5 3122.25C1445.06 3072.11 1576.77 2988.59 1684.05 2878.4C1791.33 2768.22 1871.17 2634.46 1917.14 2487.87C1963.12 2341.29 1973.94 2185.99 1948.74 2034.47C1923.55 1882.96 1863.03 1739.46 1772.07 1615.53C1681.11 1491.6 1562.25 1390.71 1425.05 1320.97C1287.85 1251.23 1136.15 1214.59 982.163 1214V1214Z" fill="url(#paint1_linear_2024_16440)"/>
</g>
<g opacity="0.08" clip-path="url(#clip2_2024_16440)">
<path d="M2422.16 0C2222.4 0.287995 2027.46 61.2382 1863.28 174.737C1699.09 288.235 1573.45 448.902 1503.07 635.365C1432.69 821.828 1420.9 1025.25 1469.27 1218.56C1517.65 1411.86 1623.89 1585.9 1773.87 1717.51C1846.08 1667.42 1901.78 1597.11 1933.92 1515.45C1803.16 1391.29 1723.38 1223.07 1710.09 1043.49C1696.8 863.918 1750.94 685.827 1862 543.862C1973.05 401.897 2133.08 306.206 2310.95 275.39C2488.83 244.575 2671.83 280.838 2824.38 377.135C2976.93 473.432 3088.12 622.88 3136.32 796.406C3184.53 969.931 3166.3 1155.13 3085.18 1316C3004.07 1476.86 2865.87 1601.89 2697.46 1666.76C2529.04 1731.64 2342.46 1731.72 2173.99 1666.99C2083.64 1736.97 1974.95 1779.42 1860.98 1789.24C1987.86 1876.28 2133.45 1932.4 2286.04 1953.07C2438.63 1973.74 2593.95 1958.39 2739.5 1908.25C2885.06 1858.11 3016.77 1774.59 3124.05 1664.4C3231.33 1554.22 3311.17 1420.46 3357.14 1273.87C3403.12 1127.29 3413.94 971.989 3388.74 820.473C3363.55 668.957 3303.03 525.458 3212.07 401.53C3121.11 277.601 3002.25 176.71 2865.05 106.968C2727.85 37.2264 2576.15 0.585292 2422.16 0V0Z" fill="url(#paint2_linear_2024_16440)"/>
</g>
<defs>
<linearGradient id="paint0_linear_2024_16440" x1="1403" y1="1504.5" x2="3381.5" y2="537.5" gradientUnits="userSpaceOnUse">
<stop stop-color="#85C6FF"/>
<stop offset="1" stop-color="#0074D9"/>
</linearGradient>
<linearGradient id="paint1_linear_2024_16440" x1="451" y1="1793.5" x2="2429.5" y2="826.5" gradientUnits="userSpaceOnUse">
<stop stop-color="#85C6FF"/>
<stop offset="1" stop-color="#0074D9"/>
</linearGradient>
<linearGradient id="paint2_linear_2024_16440" x1="1891" y1="579.5" x2="3869.5" y2="-387.5" gradientUnits="userSpaceOnUse">
<stop stop-color="#85C6FF"/>
<stop offset="1" stop-color="#0074D9"/>
</linearGradient>
<clipPath id="clip0_2024_16440">
<rect width="1962" height="1962" fill="white" transform="translate(952 925)"/>
</clipPath>
<clipPath id="clip1_2024_16440">
<rect width="1962" height="1962" fill="white" transform="translate(0 1214)"/>
</clipPath>
<clipPath id="clip2_2024_16440">
<rect width="1962" height="1962" fill="white" transform="translate(1440)"/>
</clipPath>
</defs>
</svg>
