<svg width="1962" height="1962" viewBox="0 0 1962 1962" fill="none" xmlns="http://www.w3.org/2000/svg">
<g opacity="0.12" clip-path="url(#clip0_2015_16161)">
<path d="M982.163 0C782.4 0.287995 587.459 61.2382 423.277 174.737C259.095 288.235 133.455 448.902 63.072 635.365C-7.3108 821.828 -19.0999 1025.25 29.2739 1218.56C77.6478 1411.86 183.891 1585.9 333.868 1717.51C406.079 1667.42 461.776 1597.11 493.916 1515.45C363.163 1391.29 283.382 1223.07 270.09 1043.49C256.798 863.918 310.944 685.827 421.999 543.862C533.054 401.897 693.079 306.206 870.953 275.39C1048.83 244.575 1231.83 280.838 1384.38 377.135C1536.93 473.432 1648.12 622.88 1696.32 796.406C1744.53 969.931 1726.3 1155.13 1645.18 1316C1564.07 1476.86 1425.87 1601.89 1257.46 1666.76C1089.04 1731.64 902.459 1731.72 733.988 1666.99C643.643 1736.97 534.948 1779.42 420.983 1789.24C547.856 1876.28 693.448 1932.4 846.037 1953.07C998.626 1973.74 1153.95 1958.39 1299.5 1908.25C1445.06 1858.11 1576.77 1774.59 1684.05 1664.4C1791.33 1554.22 1871.17 1420.46 1917.14 1273.87C1963.12 1127.29 1973.94 971.989 1948.74 820.473C1923.55 668.957 1863.03 525.458 1772.07 401.53C1681.11 277.601 1562.25 176.71 1425.05 106.968C1287.85 37.2264 1136.15 0.585292 982.163 0V0Z" fill="url(#paint0_linear_2015_16161)"/>
</g>
<defs>
<linearGradient id="paint0_linear_2015_16161" x1="451" y1="579.5" x2="2429.5" y2="-387.5" gradientUnits="userSpaceOnUse">
<stop stop-color="#85C6FF"/>
<stop offset="1" stop-color="#0074D9"/>
</linearGradient>
<clipPath id="clip0_2015_16161">
<rect width="1962" height="1962" fill="white"/>
</clipPath>
</defs>
</svg>
