<svg width="1296" height="318" viewBox="0 0 1296 318" fill="none" xmlns="http://www.w3.org/2000/svg">
<g clip-path="url(#clip0_30_17763)">
<rect width="1296" height="318" fill="url(#paint0_radial_30_17763)" fill-opacity="0.6"/>
<g opacity="0.1" clip-path="url(#clip1_30_17763)">
<path d="M477.163 -86C277.4 -85.712 82.4591 -24.7618 -81.7231 88.7365C-245.905 202.235 -371.545 362.902 -441.928 549.365C-512.311 735.828 -524.1 939.246 -475.726 1132.56C-427.352 1325.86 -321.109 1499.9 -171.132 1631.51C-98.9209 1581.42 -43.2235 1511.11 -11.0836 1429.45C-141.837 1305.29 -221.618 1137.07 -234.91 957.492C-248.202 777.918 -194.056 599.827 -83.0006 457.862C28.0544 315.897 188.079 220.206 365.953 189.39C543.826 158.575 726.833 194.838 879.383 291.135C1031.93 387.432 1143.12 536.88 1191.32 710.406C1239.53 883.931 1221.3 1069.13 1140.18 1230C1059.07 1390.86 920.868 1515.89 752.456 1580.76C584.043 1645.64 397.459 1645.72 228.988 1580.99C138.643 1650.97 29.9485 1693.42 -84.0169 1703.24C42.8558 1790.28 188.448 1846.4 341.037 1867.07C493.626 1887.74 648.949 1872.39 794.504 1822.25C940.058 1772.11 1071.77 1688.59 1179.05 1578.4C1286.33 1468.22 1366.17 1334.46 1412.14 1187.87C1458.12 1041.29 1468.94 885.989 1443.74 734.473C1418.55 582.957 1358.03 439.458 1267.07 315.53C1176.11 191.601 1057.25 90.7098 920.052 20.9681C782.853 -48.7736 631.153 -85.4147 477.163 -86V-86Z" fill="url(#paint1_linear_30_17763)"/>
</g>
<g opacity="0.1" clip-path="url(#clip2_30_17763)">
<path d="M797.163 -1409C597.4 -1408.71 402.459 -1347.76 238.277 -1234.26C74.0947 -1120.77 -51.5452 -960.098 -121.928 -773.635C-192.311 -587.172 -204.1 -383.754 -155.726 -190.444C-107.352 2.8647 -1.109 176.898 148.868 308.508C221.079 258.423 276.776 188.105 308.916 106.448C178.163 -17.7122 98.3822 -185.934 85.0901 -365.508C71.798 -545.082 125.944 -723.173 236.999 -865.138C348.054 -1007.1 508.079 -1102.79 685.953 -1133.61C863.826 -1164.43 1046.83 -1128.16 1199.38 -1031.86C1351.93 -935.568 1463.12 -786.12 1511.32 -612.594C1559.53 -439.069 1541.3 -253.868 1460.18 -93.0034C1379.07 67.8614 1240.87 192.892 1072.46 257.765C904.043 322.637 717.459 322.717 548.988 257.993C458.643 327.97 349.948 370.423 235.983 380.241C362.856 467.283 508.448 523.398 661.037 544.069C813.626 564.74 968.949 549.39 1114.5 499.252C1260.06 449.114 1391.77 365.587 1499.05 255.403C1606.33 145.218 1686.17 11.4552 1732.14 -135.126C1778.12 -281.707 1788.94 -437.011 1763.74 -588.527C1738.55 -740.043 1678.03 -883.542 1587.07 -1007.47C1496.11 -1131.4 1377.25 -1232.29 1240.05 -1302.03C1102.85 -1371.77 951.153 -1408.41 797.163 -1409V-1409Z" fill="url(#paint2_linear_30_17763)"/>
</g>
</g>
<defs>
<radialGradient id="paint0_radial_30_17763" cx="0" cy="0" r="1" gradientUnits="userSpaceOnUse" gradientTransform="translate(1194 66.633) rotate(166.511) scale(1438.17 356.415)">
<stop stop-color="#33A0FF"/>
<stop offset="1" stop-color="#D2EAFF"/>
</radialGradient>
<linearGradient id="paint1_linear_30_17763" x1="-54" y1="493.5" x2="1924.5" y2="-473.5" gradientUnits="userSpaceOnUse">
<stop stop-color="#85C6FF"/>
<stop offset="1" stop-color="#0074D9"/>
</linearGradient>
<linearGradient id="paint2_linear_30_17763" x1="266" y1="-829.5" x2="1637.5" y2="-626.5" gradientUnits="userSpaceOnUse">
<stop stop-color="#85C6FF"/>
<stop offset="1" stop-color="#0074D9"/>
</linearGradient>
<clipPath id="clip0_30_17763">
<rect width="1296" height="318" fill="white"/>
</clipPath>
<clipPath id="clip1_30_17763">
<rect width="1962" height="1962" fill="white" transform="translate(-505 -86)"/>
</clipPath>
<clipPath id="clip2_30_17763">
<rect width="1962" height="1962" fill="white" transform="translate(-185 -1409)"/>
</clipPath>
</defs>
</svg>
