<svg version="1.2" xmlns="http://www.w3.org/2000/svg" viewBox="0 0 1100 864" width="1100" height="864">
	<title>New Project</title>
	<style>
		.s0 { fill: #fffcfc } 
		.s1 { fill: #a9ccf0 } 
		.s2 { fill: #00226d } 
		.s3 { fill: #ffffff } 
		.s4 { fill: #147de2 } 
		.s5 { fill: none;stroke: #fffcfc;stroke-miterlimit:100;stroke-width: 7 } 
	</style>
	<g id="Folder 1">
		<path id="Rectangle 14" fill-rule="evenodd" class="s0" d="m179.4 127h730.1v549.8h-730.1z"/>
		<path id="Rectangle 15" fill-rule="evenodd" class="s1" d="m193.8 141.4h700.4v88.3h-700.4z"/>
		<path id="Rectangle 15" fill-rule="evenodd" class="s1" d="m193.8 572.2h700.4v88.4h-700.4z"/>
		<path id="Rectangle 15" fill-rule="evenodd" class="s1" d="m193.8 241.5h700.4v316.3h-700.4z"/>
		<path id="SCOPE, CONTEXT &amp; CRITERIA" class="s2" aria-label="SCOPE, CONTEXT &amp; CRITERIA"  d="m273 171.9v5.5q-2.2-1-4.2-1.5-2-0.5-3.8-0.5-2.4 0-3.6 0.7-1.1 0.6-1.1 2 0 1.1 0.7 1.7 0.8 0.5 2.8 1l2.9 0.5q4.3 0.9 6.2 2.7 1.8 1.8 1.8 5 0 4.3-2.6 6.4-2.5 2.1-7.7 2.1-2.5 0-5-0.5-2.5-0.4-5-1.4v-5.6q2.5 1.3 4.8 2 2.4 0.7 4.5 0.7 2.2 0 3.4-0.8 1.1-0.7 1.1-2.1 0-1.2-0.8-1.8-0.8-0.7-3.1-1.2l-2.6-0.6q-3.9-0.8-5.7-2.7-1.8-1.8-1.8-4.9 0-3.9 2.5-5.9 2.5-2.1 7.2-2.1 2.1 0 4.4 0.3 2.3 0.3 4.7 1zm28.1 18.3v5.4q-1.8 0.9-3.8 1.4-2 0.5-4.2 0.5-6.5 0-10.3-3.6-3.7-3.6-3.7-9.9 0-6.2 3.7-9.8 3.8-3.6 10.3-3.6 2.2 0 4.2 0.5 2 0.4 3.8 1.4v5.4q-1.8-1.3-3.6-1.9-1.8-0.6-3.8-0.6-3.6 0-5.7 2.3-2 2.3-2 6.3 0 4.1 2 6.4 2.1 2.3 5.7 2.3 2 0 3.8-0.6 1.8-0.6 3.6-1.9zm17.4-14.8q-3 0-4.7 2.3-1.7 2.2-1.7 6.3 0 4.1 1.7 6.4 1.7 2.3 4.7 2.3 3.1 0 4.8-2.3 1.7-2.3 1.7-6.4 0-4.1-1.7-6.3-1.7-2.3-4.8-2.3zm0-4.8q6.3 0 9.8 3.6 3.6 3.5 3.6 9.8 0 6.3-3.6 9.9-3.5 3.6-9.8 3.6-6.2 0-9.8-3.6-3.5-3.6-3.5-9.9 0-6.3 3.5-9.8 3.6-3.6 9.8-3.6zm18.4 26.4v-26h11.2q4.9 0 7.6 2.3 2.6 2.1 2.6 6.2 0 4.1-2.6 6.3-2.7 2.2-7.6 2.2h-4.5v9zm10.4-21.1h-3.7v7.2h3.7q2 0 3-0.9 1.1-1 1.1-2.7 0-1.7-1.1-2.7-1-0.9-3-0.9zm15.7 21.1v-26h18.1v5.1h-11.4v4.8h10.7v5.1h-10.7v5.9h11.8v5.1zm24.7-1.4v-5.3h6.2v5.3l-4.3 6.5h-3.7zm46.2-5.4v5.4q-1.9 0.9-3.9 1.4-2 0.5-4.1 0.5-6.5 0-10.3-3.6-3.8-3.7-3.8-9.9 0-6.2 3.8-9.8 3.8-3.6 10.3-3.6 2.1 0 4.1 0.4 2 0.5 3.9 1.5v5.4q-1.9-1.3-3.7-1.9-1.8-0.6-3.8-0.6-3.6 0-5.6 2.3-2.1 2.3-2.1 6.3 0 4 2.1 6.3 2 2.3 5.6 2.3 2 0 3.8-0.6 1.8-0.5 3.7-1.8zm17.4-14.8q-3.1 0-4.8 2.3-1.7 2.2-1.7 6.3 0 4.1 1.7 6.4 1.7 2.2 4.8 2.2 3 0 4.7-2.2 1.7-2.3 1.7-6.4 0-4.1-1.7-6.3-1.7-2.3-4.7-2.3zm0-4.8q6.2 0 9.8 3.5 3.5 3.6 3.5 9.9 0 6.3-3.5 9.9-3.6 3.6-9.8 3.6-6.3 0-9.8-3.6-3.6-3.6-3.6-9.9 0-6.3 3.6-9.9 3.5-3.5 9.8-3.5zm18.4 26.4v-26h7.5l9.4 17.8v-17.8h6.3v26h-7.4l-9.5-17.8v17.8zm26.7-20.9v-5.1h24v5.1h-8.7v20.9h-6.6v-20.9zm27.3 20.9v-26h18.1v5.1h-11.4v4.8h10.7v5.1h-10.7v5.9h11.8v5.1zm47.4-26l-8.6 12.7 9 13.3h-7l-6.1-8.9-6 8.9h-7l9-13.3-8.6-12.7h6.9l5.7 8.4 5.7-8.4zm1.2 5.1v-5.1h24v5.1h-8.7v20.9h-6.6v-20.9zm50.4 3.7l7.1 7.8q0.9-1.2 1.4-2.8 0.4-1.5 0.5-3.4h5.4q-0.2 3.2-1.2 5.7-1 2.4-2.7 4.3l5.1 5.6h-7.4l-1.7-1.9q-1.8 1.2-3.8 1.8-2 0.6-4.3 0.6-4.5 0-7.4-2.4-2.8-2.4-2.8-6.2 0-2.6 1.2-4.5 1.3-2 4.1-3.8-0.7-0.9-1.1-1.9-0.3-0.9-0.3-1.9 0-2.8 2.2-4.5 2.2-1.7 5.9-1.7 1.5 0 3.2 0.2 1.8 0.3 3.6 0.8v4.8q-1.6-0.8-3.1-1.2-1.4-0.4-2.8-0.4-1.4 0-2.1 0.5-0.7 0.5-0.7 1.4 0 0.6 0.4 1.4 0.4 0.7 1.3 1.7zm3.3 11.8l-6.8-7.5q-1.1 0.8-1.7 1.8-0.6 1.1-0.6 2.3 0 2 1.5 3.4 1.5 1.4 3.5 1.4 1.2 0 2.2-0.3 1-0.4 1.9-1.1zm50.1-1.4v5.4q-1.9 0.9-3.9 1.4-2 0.5-4.2 0.5-6.4 0-10.2-3.6-3.8-3.7-3.8-9.9 0-6.2 3.8-9.8 3.8-3.6 10.2-3.6 2.2 0 4.2 0.4 2 0.5 3.9 1.5v5.4q-1.9-1.3-3.7-1.9-1.8-0.6-3.8-0.6-3.6 0-5.6 2.3-2.1 2.3-2.1 6.3 0 4 2.1 6.3 2 2.3 5.6 2.3 2 0 3.8-0.6 1.8-0.5 3.7-1.8zm12.2-7.7h2.8q2.1 0 3-0.7 0.9-0.8 0.9-2.6 0-1.8-0.9-2.6-0.9-0.7-3-0.7h-2.8zm1.9 4.6h-1.9v9.8h-6.7v-25.9h10.2q5.2 0 7.5 1.7 2.4 1.7 2.4 5.4 0 2.6-1.2 4.3-1.2 1.6-3.8 2.4 1.4 0.3 2.5 1.4 1.1 1.1 2.2 3.4l3.6 7.3h-7.1l-3.2-6.4q-0.9-2-1.9-2.7-1-0.7-2.6-0.7zm18.8 9.8v-25.9h6.7v25.9zm10.2-20.9v-5h23.9v5h-8.6v20.9h-6.7v-20.9zm27.4 20.9v-25.9h18v5h-11.3v4.9h10.7v5h-10.7v6h11.7v5zm31-14.4h2.8q2.2 0 3.1-0.8 0.9-0.8 0.9-2.6 0-1.7-0.9-2.5-0.9-0.8-3.1-0.8h-2.8zm1.9 4.6h-1.9v9.9h-6.7v-26h10.3q5.1 0 7.5 1.7 2.4 1.8 2.4 5.5 0 2.5-1.3 4.2-1.2 1.7-3.7 2.4 1.4 0.3 2.4 1.5 1.1 1.1 2.2 3.3l3.7 7.4h-7.2l-3.1-6.5q-1-1.9-2-2.6-0.9-0.8-2.6-0.8zm18.9 9.9v-26h6.6v26zm30.7 0l-1.7-4.8h-10.4l-1.7 4.8h-6.7l9.6-26h8l9.6 26zm-6.9-19.9l-3.5 10.3h7.1z"/>
		<path id="RISK ASSESSMENT" class="s2" aria-label="RISK ASSESSMENT"  d="m368.1 273.6h2.8q2.1 0 3-0.8 0.9-0.8 0.9-2.6 0-1.8-0.9-2.5-0.9-0.8-3-0.8h-2.8zm1.9 4.6h-1.9v9.8h-6.7v-25.9h10.2q5.2 0 7.5 1.7 2.4 1.7 2.4 5.4 0 2.6-1.2 4.3-1.2 1.6-3.7 2.4 1.3 0.3 2.4 1.4 1.1 1.1 2.2 3.4l3.6 7.3h-7.1l-3.1-6.4q-1-2-2-2.7-1-0.7-2.6-0.7zm18.8 9.8v-25.9h6.7v25.9zm31.3-25.1v5.5q-2.1-1-4.1-1.4-2.1-0.5-3.9-0.5-2.4 0-3.5 0.6-1.2 0.7-1.2 2.1 0 1 0.8 1.6 0.8 0.6 2.8 1l2.9 0.6q4.3 0.8 6.1 2.6 1.8 1.8 1.8 5.1 0 4.3-2.5 6.4-2.6 2-7.8 2-2.5 0-4.9-0.4-2.5-0.5-5-1.4v-5.7q2.5 1.4 4.8 2 2.3 0.7 4.5 0.7 2.2 0 3.3-0.7 1.2-0.8 1.2-2.1 0-1.2-0.8-1.9-0.8-0.7-3.2-1.2l-2.6-0.6q-3.8-0.8-5.7-2.6-1.7-1.8-1.7-4.9 0-3.9 2.5-6 2.5-2.1 7.2-2.1 2.1 0 4.4 0.3 2.2 0.4 4.6 1zm7.6 25.1v-25.9h6.7v9.5l9.7-9.5h7.7l-12.5 12.3 13.8 13.6h-8.4l-10.3-10.2v10.2zm57.4 0l-1.7-4.7h-10.4l-1.7 4.7h-6.7l9.6-25.9h8l9.6 25.9zm-6.9-19.8l-3.5 10.3h7.1zm35.1-5.3v5.5q-2.2-0.9-4.2-1.4-2-0.5-3.8-0.5-2.4 0-3.6 0.7-1.1 0.6-1.1 2 0 1 0.7 1.6 0.8 0.6 2.9 1l2.8 0.6q4.3 0.9 6.2 2.6 1.8 1.8 1.8 5.1 0 4.3-2.6 6.4-2.5 2.1-7.7 2.1-2.5 0-5-0.5-2.5-0.5-5-1.4v-5.6q2.5 1.3 4.8 2 2.4 0.6 4.5 0.6 2.2 0 3.4-0.7 1.1-0.7 1.1-2.1 0-1.2-0.8-1.9-0.7-0.6-3.1-1.2l-2.6-0.5q-3.9-0.9-5.7-2.7-1.8-1.8-1.8-4.9 0-3.9 2.5-6 2.5-2.1 7.2-2.1 2.1 0 4.4 0.4 2.3 0.3 4.7 0.9zm24 0v5.5q-2.1-0.9-4.2-1.4-2-0.5-3.8-0.5-2.4 0-3.5 0.7-1.2 0.6-1.2 2 0 1 0.8 1.6 0.8 0.6 2.8 1l2.8 0.6q4.4 0.9 6.2 2.6 1.8 1.8 1.8 5.1 0 4.3-2.5 6.4-2.6 2.1-7.8 2.1-2.5 0-5-0.5-2.4-0.5-4.9-1.4v-5.6q2.5 1.3 4.8 2 2.3 0.6 4.5 0.6 2.1 0 3.3-0.7 1.2-0.7 1.2-2.1 0-1.2-0.8-1.9-0.8-0.6-3.2-1.2l-2.6-0.5q-3.9-0.9-5.7-2.7-1.8-1.8-1.8-4.9 0-3.9 2.5-6 2.6-2.1 7.2-2.1 2.2 0 4.4 0.4 2.3 0.3 4.7 0.9zm7.6 25.2v-26h18.1v5.1h-11.4v4.8h10.7v5.1h-10.7v5.9h11.7v5.1zm42.4-25.2v5.5q-2.1-0.9-4.1-1.4-2.1-0.5-3.9-0.5-2.4 0-3.5 0.7-1.2 0.6-1.2 2 0 1 0.8 1.6 0.8 0.6 2.8 1l2.9 0.6q4.3 0.9 6.1 2.6 1.8 1.8 1.8 5.1 0 4.3-2.5 6.4-2.6 2.1-7.8 2.1-2.5 0-4.9-0.5-2.5-0.5-5-1.4v-5.6q2.5 1.3 4.8 2 2.3 0.6 4.5 0.6 2.2 0 3.3-0.7 1.2-0.7 1.2-2.1 0-1.2-0.8-1.9-0.8-0.6-3.2-1.2l-2.6-0.5q-3.8-0.9-5.7-2.7-1.7-1.8-1.7-4.9 0-3.9 2.5-6 2.5-2.1 7.2-2.1 2.1 0 4.4 0.4 2.2 0.3 4.6 0.9zm24.1 0v5.5q-2.2-0.9-4.2-1.4-2-0.5-3.8-0.5-2.4 0-3.6 0.7-1.1 0.6-1.1 2 0 1 0.7 1.6 0.8 0.6 2.8 1l2.9 0.6q4.3 0.9 6.2 2.6 1.8 1.8 1.8 5.1 0 4.3-2.6 6.4-2.5 2.1-7.7 2.1-2.5 0-5-0.5-2.5-0.5-5-1.4v-5.6q2.5 1.3 4.8 2 2.4 0.6 4.5 0.6 2.2 0 3.4-0.7 1.1-0.7 1.1-2.1 0-1.2-0.8-1.9-0.8-0.6-3.1-1.2l-2.6-0.5q-3.9-0.9-5.7-2.7-1.8-1.8-1.8-4.9 0-3.9 2.5-6 2.5-2.1 7.2-2.1 2.1 0 4.4 0.4 2.3 0.3 4.7 0.9zm7.6 25.2v-26h8.5l5.9 13.9 5.9-13.9h8.5v26h-6.3v-19l-6 14h-4.2l-6-14v19zm35.4 0v-26h18.1v5.1h-11.4v4.8h10.7v5.1h-10.7v5.9h11.8v5.1zm24.3 0v-26h7.5l9.4 17.8v-17.8h6.4v26h-7.5l-9.5-17.8v17.8zm26.7-20.9v-5.1h24v5.1h-8.6v20.9h-6.7v-20.9z"/>
		<path id="RISK TREATMENT" class="s2" aria-label="RISK TREATMENT"  d="m382.1 615.6h2.8q2.1 0 3-0.8 0.9-0.8 0.9-2.6 0-1.8-0.9-2.5-0.9-0.8-3-0.8h-2.8zm1.9 4.6h-1.9v9.8h-6.7v-25.9h10.2q5.1 0 7.5 1.7 2.4 1.7 2.4 5.4 0 2.6-1.2 4.3-1.3 1.6-3.8 2.4 1.4 0.3 2.5 1.4 1.1 1.1 2.2 3.4l3.6 7.3h-7.1l-3.2-6.4q-0.9-2-1.9-2.7-1-0.7-2.6-0.7zm18.8 9.8v-25.9h6.7v25.9zm31.3-25.1v5.5q-2.1-1-4.2-1.4-2-0.5-3.8-0.5-2.4 0-3.6 0.6-1.1 0.7-1.1 2.1 0 1 0.8 1.6 0.7 0.6 2.8 1l2.8 0.6q4.4 0.8 6.2 2.6 1.8 1.8 1.8 5.1 0 4.3-2.5 6.4-2.6 2-7.8 2-2.5 0-5-0.4-2.5-0.5-4.9-1.4v-5.7q2.4 1.4 4.8 2 2.3 0.7 4.4 0.7 2.2 0 3.4-0.7 1.2-0.8 1.2-2.1 0-1.2-0.8-1.9-0.8-0.7-3.2-1.2l-2.6-0.6q-3.9-0.8-5.7-2.6-1.8-1.8-1.8-4.9 0-3.9 2.5-6 2.5-2.1 7.2-2.1 2.2 0 4.4 0.3 2.3 0.4 4.7 1zm7.6 25.1v-25.9h6.7v9.5l9.6-9.5h7.8l-12.5 12.3 13.8 13.6h-8.4l-10.3-10.2v10.2zm36.9-20.9v-5h23.9v5h-8.6v20.9h-6.7v-20.9zm34.1 6.5h2.8q2.1 0 3-0.8 0.9-0.8 0.9-2.6 0-1.7-0.9-2.5-0.9-0.8-3-0.8h-2.8zm1.9 4.7h-1.9v9.8h-6.7v-26h10.2q5.1 0 7.5 1.7 2.4 1.8 2.4 5.5 0 2.6-1.2 4.2-1.3 1.7-3.8 2.4 1.4 0.4 2.5 1.5 1.1 1.1 2.2 3.3l3.6 7.4h-7.1l-3.2-6.5q-0.9-1.9-1.9-2.6-1-0.7-2.6-0.7zm18.8 9.8v-26h18v5.1h-11.3v4.8h10.7v5.1h-10.7v5.9h11.7v5.1zm41.7 0l-1.6-4.7h-10.5l-1.6 4.7h-6.7l9.6-26h8l9.6 26zm-6.9-19.9l-3.6 10.3h7.1zm11.2-1v-5h23.9v5h-8.6v20.9h-6.7v-20.9zm27.4 20.9v-25.9h8.5l6 13.8 5.9-13.8h8.5v25.9h-6.3v-19l-6 14h-4.2l-6-14v19zm35.4 0v-25.9h18.1v5h-11.4v4.8h10.7v5.1h-10.7v6h11.7v5zm24.4 0v-25.9h7.4l9.5 17.8v-17.8h6.3v25.9h-7.4l-9.5-17.8v17.8zm26.7-20.9v-5h23.9v5h-8.6v20.9h-6.7v-20.9z"/>
		<path id="RISK MANAGEMENT PROCESS" class="s3" aria-label="RISK MANAGEMENT PROCESS"  d="m258.6 80.6h2.8q2.2 0 3.1-0.8 0.9-0.8 0.9-2.6 0-1.8-0.9-2.5-0.9-0.8-3.1-0.8h-2.8zm1.9 4.6h-1.9v9.8h-6.7v-25.9h10.3q5.1 0 7.5 1.7 2.4 1.7 2.4 5.4 0 2.6-1.3 4.3-1.2 1.6-3.7 2.4 1.4 0.3 2.4 1.4 1.1 1.1 2.2 3.4l3.7 7.3h-7.2l-3.1-6.4q-1-2-2-2.7-0.9-0.7-2.6-0.7zm18.9 9.8v-25.9h6.6v25.9zm31.4-25.1v5.5q-2.2-1-4.2-1.4-2-0.5-3.9-0.5-2.4 0-3.5 0.6-1.2 0.7-1.2 2.1 0 1 0.8 1.6 0.8 0.6 2.8 1l2.9 0.6q4.3 0.8 6.1 2.6 1.9 1.8 1.9 5.1 0 4.3-2.6 6.4-2.5 2-7.8 2-2.4 0-4.9-0.4-2.5-0.5-5-1.4v-5.7q2.5 1.4 4.8 2 2.3 0.7 4.5 0.7 2.2 0 3.3-0.7 1.2-0.8 1.2-2.1 0-1.2-0.8-1.9-0.8-0.7-3.1-1.2l-2.6-0.6q-3.9-0.8-5.7-2.6-1.8-1.8-1.8-4.9 0-3.9 2.5-6 2.5-2.1 7.2-2.1 2.1 0 4.4 0.3 2.2 0.4 4.7 1zm7.5 25.1v-25.9h6.7v9.5l9.7-9.5h7.7l-12.4 12.3 13.7 13.6h-8.3l-10.4-10.2v10.2zm40 0v-25.9h8.5l5.9 13.9 6-13.9h8.5v25.9h-6.3v-18.9l-6 14h-4.3l-5.9-14v18.9zm52.8 0l-1.7-4.7h-10.4l-1.7 4.7h-6.7l9.6-25.9h8l9.6 25.9zm-6.9-19.8l-3.5 10.3h7.1zm17 19.9v-26h7.5l9.4 17.8v-17.8h6.4v26h-7.5l-9.4-17.8v17.8zm47.1 0l-1.6-4.8h-10.5l-1.6 4.8h-6.7l9.6-26h8l9.6 26zm-6.9-19.9l-3.6 10.3h7.2zm40.3 5.5v12.5q-2.5 1.2-5.2 1.8-2.7 0.6-5.5 0.6-6.5 0-10.3-3.6-3.8-3.7-3.8-9.9 0-6.2 3.9-9.8 3.8-3.6 10.5-3.6 2.6 0 5 0.5 2.4 0.4 4.5 1.4v5.4q-2.2-1.3-4.4-1.9-2.1-0.6-4.3-0.6-4 0-6.1 2.3-2.2 2.2-2.2 6.3 0 4.2 2.1 6.4 2.1 2.2 5.9 2.2 1.1 0 2-0.1 0.9-0.1 1.6-0.4v-5h-4.1v-4.5zm5.9 14.4v-26h18v5.1h-11.3v4.8h10.7v5.1h-10.7v5.9h11.7v5.1zm24.4 0v-26h8.5l5.9 13.9 5.9-13.9h8.5v26h-6.3v-19l-6 14h-4.2l-6-14v19zm35.4 0v-26h18.1v5.1h-11.4v4.8h10.7v5.1h-10.7v5.9h11.8v5.1zm24.3 0v-26h7.5l9.4 17.8v-17.8h6.4v26h-7.5l-9.5-17.8v17.8zm26.7-20.9v-5.1h24v5.1h-8.6v20.9h-6.7v-20.9zm39.7 20.9v-26h11.1q5 0 7.6 2.2 2.7 2.2 2.7 6.3 0 4.1-2.7 6.3-2.6 2.2-7.6 2.2h-4.4v9zm10.4-21.1h-3.7v7.2h3.7q2 0 3-0.9 1.1-1 1.1-2.7 0-1.7-1.1-2.7-1-0.9-3-0.9zm22.4 6.6h2.8q2.1 0 3-0.7 1-0.8 1-2.6 0-1.8-1-2.5-0.9-0.8-3-0.8h-2.8zm1.9 4.6h-1.9v9.8h-6.7v-25.9h10.2q5.2 0 7.6 1.7 2.4 1.7 2.4 5.4 0 2.6-1.3 4.3-1.2 1.6-3.7 2.4 1.3 0.3 2.4 1.4 1.1 1.1 2.2 3.4l3.7 7.3h-7.2l-3.1-6.4q-1-2-2-2.7-1-0.7-2.6-0.7zm30.7-11.7q-3.1 0-4.7 2.2-1.7 2.3-1.7 6.4 0 4.1 1.7 6.3 1.6 2.3 4.7 2.3 3.1 0 4.8-2.3 1.6-2.2 1.6-6.3 0-4.1-1.6-6.4-1.7-2.2-4.8-2.2zm0-4.9q6.3 0 9.8 3.6 3.6 3.6 3.6 9.9 0 6.3-3.6 9.9-3.5 3.5-9.8 3.5-6.2 0-9.8-3.5-3.6-3.6-3.6-9.9 0-6.3 3.6-9.9 3.6-3.6 9.8-3.6zm39 19.6v5.4q-1.8 1-3.8 1.5-2 0.4-4.2 0.4-6.5 0-10.3-3.6-3.8-3.6-3.8-9.8 0-6.2 3.8-9.9 3.8-3.6 10.3-3.6 2.2 0 4.2 0.5 2 0.5 3.8 1.4v5.4q-1.9-1.3-3.7-1.8-1.8-0.6-3.8-0.6-3.6 0-5.6 2.3-2.1 2.3-2.1 6.3 0 4 2.1 6.3 2 2.3 5.6 2.3 2 0 3.8-0.6 1.8-0.6 3.7-1.9zm5.5 6.8v-25.9h18.1v5h-11.4v4.9h10.7v5h-10.7v6h11.8v5zm42.4-25.1v5.5q-2.2-1-4.2-1.5-2-0.4-3.8-0.4-2.4 0-3.6 0.6-1.1 0.7-1.1 2.1 0 1 0.7 1.6 0.8 0.6 2.8 1l2.9 0.6q4.3 0.8 6.1 2.6 1.9 1.8 1.9 5.1 0 4.3-2.6 6.4-2.5 2-7.8 2-2.4 0-4.9-0.4-2.5-0.5-5-1.4v-5.7q2.5 1.4 4.8 2 2.3 0.7 4.5 0.7 2.2 0 3.4-0.7 1.1-0.8 1.1-2.1 0-1.2-0.8-1.9-0.8-0.7-3.1-1.2l-2.6-0.6q-3.9-0.8-5.7-2.6-1.8-1.8-1.8-4.9 0-3.9 2.5-6 2.5-2.1 7.2-2.1 2.1 0 4.4 0.3 2.3 0.4 4.7 1zm24 0v5.5q-2.1-1-4.2-1.5-2-0.4-3.8-0.4-2.4 0-3.5 0.6-1.2 0.7-1.2 2.1 0 1 0.8 1.6 0.8 0.6 2.8 1l2.8 0.6q4.4 0.8 6.2 2.6 1.8 1.8 1.8 5.1 0 4.3-2.5 6.4-2.6 2-7.8 2-2.5 0-5-0.4-2.5-0.5-4.9-1.4v-5.7q2.4 1.4 4.8 2 2.3 0.7 4.4 0.7 2.2 0 3.4-0.7 1.2-0.8 1.2-2.1 0-1.2-0.8-1.9-0.8-0.7-3.2-1.2l-2.6-0.6q-3.9-0.8-5.7-2.6-1.8-1.8-1.8-4.9 0-3.9 2.5-6 2.5-2.1 7.2-2.1 2.2 0 4.4 0.3 2.3 0.4 4.7 1z"/>
		<path id="Rectangle 16" fill-rule="evenodd" class="s2" d="m240.7 309.1h605.7v57.6h-605.7z"/>
		<path id="Rectangle 16" fill-rule="evenodd" class="s2" d="m240.7 388.4h605.7v57.7h-605.7z"/>
		<path id="Rectangle 16" fill-rule="evenodd" class="s2" d="m242.5 469.5h605.7v57.7h-605.7z"/>
		<path id="Shape 1" fill-rule="evenodd" class="s2" d="m467.8 316.3l75.3 65.8 75.3-65.8z"/>
		<path id="Shape 1" fill-rule="evenodd" class="s2" d="m468.7 395.6l75.3 65.8 75.3-65.8z"/>
		<path id="Shape 1" fill-rule="evenodd" class="s2" d="m468.7 475.8l75.3 65.8 75.3-65.8z"/>
		<path id="RISK IDENTIFICATION" class="s0" aria-label="RISK IDENTIFICATION"  d="m358.3 335.8h2.5q1.9 0 2.8-0.7 0.8-0.7 0.8-2.4 0-1.6-0.8-2.3-0.9-0.7-2.8-0.7h-2.5zm1.7 4.3h-1.7v8.9h-6.2v-23.7h9.4q4.7 0 6.8 1.6 2.2 1.6 2.2 5 0 2.3-1.1 3.8-1.1 1.5-3.4 2.2 1.2 0.3 2.2 1.3 1 1 2 3.1l3.3 6.7h-6.5l-2.9-5.9q-0.8-1.7-1.7-2.4-0.9-0.6-2.4-0.6zm17.2 8.9v-23.7h6.1v23.7zm28.6-22.9v5q-2-0.9-3.8-1.3-1.9-0.5-3.5-0.5-2.2 0-3.3 0.6-1 0.6-1 1.9 0 1 0.7 1.5 0.7 0.5 2.5 0.9l2.6 0.5q4 0.8 5.7 2.4 1.6 1.7 1.6 4.6 0 4-2.3 5.9-2.3 1.9-7.1 1.9-2.3 0-4.5-0.4-2.3-0.5-4.6-1.3v-5.2q2.3 1.2 4.4 1.9 2.1 0.6 4.1 0.6 2 0 3.1-0.7 1-0.7 1-1.9 0-1.1-0.7-1.7-0.7-0.6-2.9-1.1l-2.3-0.5q-3.6-0.8-5.2-2.5-1.7-1.6-1.7-4.5 0-3.5 2.3-5.4 2.3-1.9 6.6-1.9 1.9 0 4 0.3 2.1 0.3 4.3 0.9zm6.9 22.9v-23.7h6.1v8.7l8.8-8.7h7.1l-11.4 11.2 12.6 12.5h-7.7l-9.4-9.3v9.3zm36.5 0v-23.7h6.1v23.7zm20.4-19.1h-2.2v14.5h2.2q3.8 0 5.7-1.9 2-1.8 2-5.4 0-3.5-2-5.3-1.9-1.9-5.7-1.9zm-8.3 19.1v-23.7h6.5q5.4 0 8 0.8 2.6 0.8 4.5 2.6 1.7 1.6 2.5 3.7 0.8 2.1 0.8 4.7 0 2.7-0.8 4.8-0.8 2.1-2.5 3.7-1.9 1.9-4.5 2.7-2.7 0.7-8 0.7zm26.9 0v-23.7h16.5v4.6h-10.4v4.5h9.8v4.6h-9.8v5.4h10.8v4.6zm22.2 0v-23.7h6.8l8.6 16.3v-16.3h5.8v23.7h-6.8l-8.6-16.2v16.2zm24.4-19.1v-4.6h21.8v4.6h-7.9v19.1h-6.1v-19.1zm25 19.1v-23.7h6.1v23.7zm12.1 0v-23.7h16.5v4.6h-10.4v4.5h9.8v4.6h-9.8v10zm22.2 0v-23.7h6.2v23.7zm30.8-6.2v4.9q-1.6 0.9-3.5 1.3-1.8 0.5-3.8 0.5-5.9 0-9.4-3.3-3.4-3.3-3.4-9 0-5.7 3.4-9 3.5-3.3 9.4-3.3 2 0 3.8 0.4 1.9 0.5 3.5 1.4v4.9q-1.7-1.2-3.3-1.7-1.7-0.6-3.5-0.6-3.3 0-5.1 2.1-1.9 2.1-1.9 5.8 0 3.7 1.9 5.8 1.8 2.1 5.1 2.1 1.8 0 3.5-0.6 1.6-0.5 3.3-1.7zm21 6.2l-1.5-4.3h-9.6l-1.5 4.3h-6.1l8.8-23.7h7.2l8.8 23.7zm-6.3-18.1l-3.2 9.4h6.5zm10.2-0.9v-4.6h21.8v4.6h-7.8v19h-6.1v-19zm25 19v-23.6h6.1v23.6zm22.9-19.6q-2.8 0-4.3 2-1.6 2.1-1.6 5.8 0 3.8 1.6 5.8 1.5 2.1 4.3 2.1 2.8 0 4.3-2.1 1.6-2 1.6-5.8 0-3.7-1.6-5.8-1.5-2-4.3-2zm0-4.5q5.7 0 8.9 3.3 3.3 3.3 3.3 9 0 5.8-3.3 9-3.2 3.3-8.9 3.3-5.7 0-9-3.3-3.2-3.2-3.2-9 0-5.7 3.2-9 3.3-3.3 9-3.3zm16.8 24.1v-23.6h6.8l8.6 16.2v-16.2h5.8v23.6h-6.8l-8.6-16.2v16.2z"/>
		<path id="RISK ANALYSIS" class="s0" aria-label="RISK ANALYSIS"  d="m415.9 415.8h2.5q2 0 2.8-0.7 0.8-0.7 0.8-2.4 0-1.6-0.8-2.3-0.8-0.7-2.8-0.7h-2.5zm1.7 4.3h-1.7v8.9h-6.1v-23.7h9.3q4.7 0 6.8 1.6 2.2 1.6 2.2 5 0 2.3-1.1 3.8-1.1 1.5-3.4 2.2 1.2 0.3 2.2 1.3 1 1 2 3.1l3.4 6.7h-6.6l-2.8-5.9q-0.9-1.7-1.8-2.4-0.9-0.6-2.4-0.6zm17.2 8.9v-23.7h6.1v23.7zm28.6-22.9v5q-2-0.9-3.8-1.3-1.9-0.5-3.5-0.5-2.2 0-3.3 0.6-1 0.6-1 1.9 0 1 0.7 1.5 0.7 0.5 2.5 0.9l2.7 0.5q3.9 0.8 5.6 2.4 1.6 1.7 1.6 4.6 0 4-2.3 5.9-2.3 1.9-7.1 1.9-2.2 0-4.5-0.4-2.3-0.5-4.6-1.3v-5.2q2.3 1.2 4.4 1.9 2.2 0.6 4.1 0.6 2 0 3.1-0.7 1-0.7 1-1.9 0-1.1-0.7-1.7-0.7-0.6-2.9-1.1l-2.3-0.5q-3.6-0.8-5.2-2.5-1.7-1.6-1.7-4.5 0-3.5 2.3-5.4 2.3-1.9 6.6-1.9 1.9 0 4 0.3 2.1 0.3 4.3 0.9zm6.9 22.9v-23.7h6.1v8.7l8.8-8.7h7.1l-11.4 11.2 12.6 12.5h-7.7l-9.4-9.3v9.3zm52.4 0l-1.5-4.3h-9.6l-1.5 4.3h-6.1l8.8-23.7h7.3l8.7 23.7zm-6.2-18.1l-3.3 9.4h6.5zm15.6 18.1v-23.6h6.8l8.6 16.2v-16.2h5.8v23.6h-6.8l-8.7-16.2v16.2zm43.1 0l-1.5-4.3h-9.5l-1.5 4.3h-6.2l8.8-23.6h7.3l8.8 23.6zm-6.3-18.1l-3.3 9.4h6.5zm15.6 18.2v-23.7h6.1v19.1h10.7v4.6zm21.4-10l-9-13.7h6.7l5.4 8.4 5.3-8.4h6.7l-9 13.7v10h-6.1zm34.3-13v5q-1.9-0.8-3.8-1.3-1.9-0.4-3.5-0.4-2.2 0-3.3 0.6-1 0.6-1 1.8 0 1 0.7 1.5 0.7 0.6 2.6 0.9l2.6 0.6q3.9 0.8 5.6 2.4 1.7 1.6 1.7 4.6 0 3.9-2.4 5.8-2.3 1.9-7.1 1.9-2.2 0-4.5-0.4-2.3-0.4-4.5-1.3v-5.1q2.2 1.2 4.3 1.8 2.2 0.6 4.1 0.6 2 0 3.1-0.7 1.1-0.6 1.1-1.9 0-1.1-0.8-1.7-0.7-0.6-2.8-1.1l-2.4-0.5q-3.6-0.8-5.2-2.4-1.6-1.7-1.6-4.5 0-3.6 2.2-5.5 2.3-1.9 6.6-1.9 2 0 4 0.3 2.1 0.3 4.3 0.9zm6.9 23v-23.7h6.1v23.7zm28.6-23v5q-1.9-0.8-3.8-1.3-1.8-0.4-3.5-0.4-2.2 0-3.2 0.6-1.1 0.6-1.1 1.8 0 1 0.7 1.5 0.7 0.6 2.6 0.9l2.6 0.6q3.9 0.8 5.6 2.4 1.7 1.6 1.7 4.6 0 3.9-2.4 5.8-2.3 1.9-7.1 1.9-2.2 0-4.5-0.4-2.2-0.4-4.5-1.3v-5.1q2.3 1.2 4.4 1.8 2.1 0.6 4.1 0.6 2 0 3-0.7 1.1-0.6 1.1-1.9 0-1.1-0.7-1.7-0.8-0.6-2.9-1.1l-2.4-0.5q-3.5-0.8-5.2-2.4-1.6-1.7-1.6-4.5 0-3.6 2.3-5.5 2.2-1.9 6.5-1.9 2 0 4 0.3 2.1 0.3 4.3 0.9z"/>
		<path id="RISK EVALUATION" class="s0" aria-label="RISK EVALUATION"  d="m391.1 496.8h2.6q1.9 0 2.7-0.7 0.8-0.7 0.8-2.4 0-1.6-0.8-2.3-0.8-0.7-2.7-0.7h-2.6zm1.7 4.3h-1.7v8.9h-6.1v-23.7h9.3q4.7 0 6.9 1.6 2.1 1.6 2.1 5 0 2.3-1.1 3.8-1.1 1.5-3.4 2.2 1.2 0.3 2.2 1.3 1 1 2 3.1l3.4 6.7h-6.5l-2.9-5.9q-0.9-1.7-1.8-2.4-0.9-0.6-2.4-0.6zm17.2 8.9v-23.7h6.1v23.7zm28.6-22.9v5q-2-0.9-3.8-1.3-1.9-0.5-3.5-0.5-2.2 0-3.3 0.6-1 0.6-1 1.9 0 1 0.7 1.5 0.7 0.5 2.6 0.9l2.6 0.5q3.9 0.8 5.6 2.4 1.6 1.7 1.6 4.6 0 4-2.3 5.9-2.3 1.9-7.1 1.9-2.2 0-4.5-0.4-2.3-0.5-4.5-1.3v-5.2q2.2 1.2 4.3 1.9 2.2 0.6 4.1 0.6 2 0 3.1-0.7 1.1-0.7 1.1-1.9 0-1.1-0.8-1.7-0.7-0.6-2.8-1.1l-2.4-0.5q-3.6-0.8-5.2-2.5-1.6-1.6-1.6-4.5 0-3.5 2.2-5.4 2.3-1.9 6.6-1.9 2 0 4 0.3 2.1 0.3 4.3 0.9zm6.9 22.9v-23.7h6.1v8.7l8.8-8.7h7.1l-11.4 11.2 12.6 12.5h-7.6l-9.5-9.3v9.3zm36.5 0v-23.7h16.5v4.6h-10.4v4.5h9.8v4.6h-9.8v5.4h10.8v4.6zm28.1 0l-8.8-23.7h6.2l6.3 17.5 6.2-17.5h6.2l-8.8 23.7zm32.9 0l-1.5-4.3h-9.6l-1.5 4.3h-6.1l8.8-23.7h7.2l8.8 23.7zm-6.2-18.1l-3.3 9.4h6.5zm15.5 18.1v-23.6h6.2v19h10.7v4.6zm19.5-9.4v-14.2h6.1v14.2q0 2.9 1 4.2 1 1.2 3.1 1.2 2.2 0 3.2-1.2 1-1.3 1-4.2v-14.2h6.1v14.2q0 5-2.6 7.4-2.5 2.5-7.7 2.5-5.1 0-7.6-2.5-2.6-2.4-2.6-7.4zm41.3 9.4l-1.5-4.3h-9.5l-1.6 4.3h-6.1l8.8-23.6h7.3l8.7 23.6zm-6.2-18.1l-3.3 9.4h6.5zm10.2-0.9v-4.6h21.9v4.6h-7.9v19.1h-6.1v-19.1zm25 19.1v-23.7h6.1v23.7zm22.9-19.7q-2.8 0-4.3 2-1.6 2.1-1.6 5.9 0 3.7 1.6 5.7 1.5 2.1 4.3 2.1 2.8 0 4.4-2.1 1.5-2 1.5-5.7 0-3.8-1.5-5.9-1.6-2-4.4-2zm0-4.4q5.7 0 9 3.2 3.2 3.3 3.2 9.1 0 5.7-3.2 9-3.3 3.2-9 3.2-5.7 0-8.9-3.2-3.3-3.3-3.3-9 0-5.8 3.3-9.1 3.2-3.2 8.9-3.2zm16.8 24.1v-23.7h6.9l8.6 16.2v-16.2h5.8v23.7h-6.9l-8.6-16.3v16.3z"/>
		<path id="Rectangle 15" fill-rule="evenodd" class="s4" d="m67.7 676.8v-549.8h88.3v549.8z"/>
		<path id="COMUNICATION &amp; CONSULTATION" class="s0" aria-label="COMUNICATION &amp; CONSULTATION"  d="m100.7 563.8h5.4q1 1.9 1.4 3.9 0.5 2 0.5 4.1 0 6.5-3.6 10.3-3.6 3.8-9.8 3.8-6.3 0-9.9-3.8-3.6-3.8-3.6-10.3 0-2.1 0.5-4.1 0.5-2 1.4-3.9h5.4q-1.3 1.9-1.9 3.7-0.6 1.8-0.6 3.8 0 3.6 2.3 5.6 2.3 2.1 6.4 2.1 4 0 6.3-2.1 2.3-2 2.3-5.6 0-2-0.6-3.8-0.6-1.8-1.9-3.7zm-14.8-17.4q0 3.1 2.3 4.8 2.3 1.6 6.4 1.6 4.1 0 6.3-1.6 2.3-1.7 2.3-4.8 0-3.1-2.3-4.8-2.2-1.6-6.3-1.6-4.1 0-6.4 1.6-2.3 1.7-2.3 4.8zm-4.8 0q0-6.3 3.6-9.8 3.6-3.5 9.9-3.5 6.3 0 9.8 3.5 3.6 3.5 3.6 9.8 0 6.2-3.6 9.8-3.5 3.6-9.8 3.6-6.3 0-9.9-3.6-3.6-3.6-3.6-9.8zm26.4-18.4h-25.9v-8.5l13.9-5.9-13.9-6v-8.5h25.9v6.3h-19l14 6v4.3l-14 6h19zm-10.4-35.5h-15.5v-6.7h15.5q3.2 0 4.6-1 1.4-1.1 1.4-3.5 0-2.4-1.4-3.4-1.4-1.1-4.6-1.1h-15.5v-6.7h15.5q5.5 0 8.2 2.8 2.7 2.8 2.7 8.4 0 5.7-2.7 8.5-2.7 2.7-8.2 2.7zm10.4-28.9h-25.9v-7.5l17.8-9.4h-17.8v-6.4h25.9v7.5l-17.8 9.5h17.8zm0-29.8h-25.9v-6.7h25.9zm-6.8-33.9h5.4q1 1.9 1.4 3.9 0.5 2 0.5 4.2 0 6.4-3.6 10.2-3.6 3.8-9.8 3.8-6.3 0-9.9-3.8-3.6-3.8-3.6-10.2 0-2.2 0.5-4.2 0.5-2 1.4-3.9h5.4q-1.3 1.9-1.9 3.7-0.6 1.8-0.6 3.8 0 3.6 2.3 5.7 2.3 2 6.4 2 4 0 6.3-2 2.3-2.1 2.3-5.7 0-2-0.6-3.8-0.6-1.8-1.9-3.7zm6.8-22.9l-4.7 1.6v10.5l4.7 1.7v6.7l-25.9-9.6v-8l25.9-9.6zm-19.9 6.9l10.4 3.5v-7.1zm-1-11.2h-5.1v-23.9h5.1v8.6h20.8v6.7h-20.8zm20.8-27.4h-25.9v-6.7h25.9zm-21.5-25.1q0 3.1 2.2 4.8 2.3 1.7 6.4 1.7 4.1 0 6.3-1.7 2.3-1.7 2.3-4.8 0-3.1-2.3-4.7-2.2-1.7-6.3-1.7-4.1 0-6.4 1.7-2.2 1.6-2.2 4.7zm-4.9 0q0-6.2 3.6-9.8 3.6-3.5 9.9-3.5 6.3 0 9.9 3.5 3.6 3.6 3.6 9.8 0 6.3-3.6 9.8-3.6 3.6-9.9 3.6-6.3 0-9.9-3.6-3.6-3.5-3.6-9.8zm26.4-18.4h-25.9v-7.5l17.8-9.4h-17.8v-6.3h25.9v7.4l-17.8 9.5h17.8zm-17.2-52.8l7.8-7.2q-1.2-0.9-2.7-1.3-1.5-0.5-3.4-0.6v-5.4q3.2 0.2 5.6 1.2 2.5 1 4.3 2.7l5.6-5.1v7.4l-1.8 1.7q1.2 1.8 1.8 3.8 0.6 2 0.6 4.3 0 4.6-2.4 7.4-2.5 2.8-6.3 2.8-2.5 0-4.5-1.2-1.9-1.3-3.8-4.1-0.9 0.7-1.8 1.1-0.9 0.3-1.9 0.3-2.9 0-4.6-2.2-1.7-2.2-1.7-5.9 0-1.5 0.3-3.2 0.2-1.8 0.7-3.6h4.9q-0.9 1.6-1.3 3.1-0.4 1.4-0.4 2.8 0 1.4 0.6 2.1 0.5 0.7 1.4 0.7 0.6 0 1.3-0.4 0.8-0.4 1.7-1.2zm11.8-3.4l-7.5 6.8q0.8 1.1 1.9 1.7 1 0.6 2.3 0.6 1.9 0 3.4-1.5 1.4-1.5 1.4-3.5 0-1.2-0.4-2.2-0.3-1-1.1-1.9zm32 290.9h5.4q0.9 1.9 1.4 3.9 0.5 2 0.5 4.2 0 6.4-3.6 10.2-3.7 3.8-9.9 3.8-6.2 0-9.8-3.8-3.6-3.8-3.6-10.2 0-2.2 0.5-4.2 0.4-2 1.4-3.9h5.4q-1.3 1.9-1.9 3.7-0.6 1.8-0.6 3.8 0 3.6 2.3 5.7 2.3 2 6.3 2 4.1 0 6.4-2 2.2-2.1 2.2-5.7 0-2-0.5-3.8-0.6-1.8-1.9-3.7zm-14.8-17.4q0 3.1 2.3 4.8 2.2 1.7 6.3 1.7 4.1 0 6.4-1.7 2.2-1.7 2.2-4.8 0-3-2.2-4.7-2.3-1.7-6.4-1.7-4.1 0-6.3 1.7-2.3 1.7-2.3 4.7zm-4.8 0q0-6.2 3.6-9.8 3.5-3.5 9.8-3.5 6.3 0 9.9 3.5 3.6 3.6 3.6 9.8 0 6.3-3.6 9.8-3.6 3.6-9.9 3.6-6.3 0-9.8-3.6-3.6-3.5-3.6-9.8zm26.4-18.4h-26v-7.4l17.8-9.5h-17.8v-6.3h26v7.4l-17.8 9.5h17.8zm-25.1-47.9h5.5q-1 2.2-1.5 4.2-0.5 2-0.5 3.8 0 2.4 0.7 3.6 0.6 1.1 2 1.1 1.1 0 1.7-0.7 0.5-0.8 1-2.8l0.5-2.9q0.9-4.3 2.7-6.2 1.7-1.8 5-1.8 4.3 0 6.4 2.6 2.1 2.5 2.1 7.7 0 2.5-0.5 5-0.4 2.5-1.4 5h-5.6q1.3-2.5 2-4.8 0.6-2.4 0.6-4.5 0-2.2-0.7-3.4-0.7-1.1-2.1-1.1-1.2 0-1.8 0.8-0.7 0.8-1.2 3.1l-0.6 2.6q-0.8 3.9-2.7 5.7-1.8 1.8-4.9 1.8-3.9 0-5.9-2.5-2.1-2.5-2.1-7.2 0-2.1 0.3-4.4 0.3-2.3 1-4.7zm14.7-7.6h-15.6v-6.6h15.6q3.2 0 4.6-1.1 1.4-1.1 1.4-3.4 0-2.4-1.4-3.5-1.4-1-4.6-1h-15.6v-6.7h15.6q5.5 0 8.2 2.7 2.7 2.8 2.7 8.5 0 5.6-2.7 8.4-2.7 2.7-8.2 2.7zm10.4-28.9h-26v-6.7h20.9v-11.7h5.1zm-20.9-13.7h-5.1v-23.9h5.1v8.6h20.9v6.7h-20.9zm20.9-42l-4.7 1.6v10.5l4.7 1.6v6.7l-26-9.6v-7.9l26-9.7zm-19.9 6.9l10.4 3.6v-7.1zm-1.1-11.2h-5v-23.9h5v8.6h20.9v6.7h-20.9zm20.9-27.4h-25.9v-6.7h25.9zm-21.6-25.1q0 3 2.3 4.7 2.3 1.7 6.4 1.7 4.1 0 6.3-1.7 2.3-1.7 2.3-4.7 0-3.1-2.3-4.8-2.2-1.7-6.3-1.7-4.1 0-6.4 1.7-2.3 1.7-2.3 4.8zm-4.8 0q0-6.3 3.6-9.8 3.6-3.6 9.9-3.6 6.3 0 9.8 3.6 3.6 3.5 3.6 9.8 0 6.2-3.6 9.8-3.5 3.5-9.8 3.5-6.3 0-9.9-3.5-3.6-3.6-3.6-9.8zm26.4-18.4h-25.9v-7.5l17.8-9.4h-17.8v-6.4h25.9v7.5l-17.8 9.4h17.8z"/>
		<path id="Rectangle 15" fill-rule="evenodd" class="s4" d="m1020.3 125.2v549.8h-88.3v-549.8z"/>
		<path id="MONITORING &amp; REVIEW" class="s0" aria-label="MONITORING &amp; REVIEW"  d="m963.1 256.6h26v8.6l-13.9 5.9 13.9 5.9v8.5h-26v-6.3h19l-14-6v-4.2l14-6h-19zm21.6 47.3q0-3.1-2.3-4.8-2.2-1.7-6.3-1.7-4.1 0-6.4 1.7-2.2 1.7-2.2 4.8 0 3 2.2 4.7 2.3 1.7 6.4 1.7 4.1 0 6.3-1.7 2.3-1.7 2.3-4.7zm4.8 0q0 6.2-3.5 9.8-3.6 3.5-9.9 3.5-6.3 0-9.9-3.5-3.6-3.6-3.6-9.8 0-6.3 3.6-9.8 3.6-3.6 9.9-3.6 6.3 0 9.9 3.6 3.5 3.5 3.5 9.8zm-26.4 18.4h26v7.5l-17.8 9.4h17.8v6.3h-26v-7.4l17.8-9.5h-17.8zm0 29.8h26v6.7h-26zm20.9 10.2h5.1v23.9h-5.1v-8.6h-20.9v-6.7h20.9zm0.7 39.2q0-3-2.3-4.7-2.2-1.7-6.3-1.7-4.1 0-6.4 1.7-2.2 1.7-2.2 4.7 0 3.1 2.2 4.8 2.3 1.7 6.4 1.7 4.1 0 6.3-1.7 2.3-1.7 2.3-4.8zm4.8 0q0 6.3-3.5 9.8-3.6 3.6-9.9 3.6-6.3 0-9.9-3.6-3.6-3.5-3.6-9.8 0-6.2 3.6-9.8 3.6-3.5 9.9-3.5 6.3 0 9.9 3.5 3.5 3.6 3.5 9.8zm-11.9 25.1v2.8q0 2.1 0.7 3.1 0.8 0.9 2.6 0.9 1.8 0 2.6-0.9 0.7-1 0.7-3.1v-2.8zm-4.6 1.9v-1.9h-9.8v-6.7h25.9v10.3q0 5.1-1.7 7.5-1.7 2.4-5.4 2.4-2.6 0-4.3-1.3-1.6-1.2-2.4-3.7-0.3 1.4-1.4 2.4-1.1 1.1-3.4 2.2l-7.3 3.7v-7.2l6.4-3.1q2-1 2.7-2 0.7-0.9 0.7-2.6zm-9.8 18.9h25.9v6.6h-25.9zm0 13.3h25.9v7.5l-17.8 9.4h17.8v6.4h-25.9v-7.5l17.8-9.5h-17.8zm14.4 53.2h-12.5q-1.2-2.5-1.8-5.2-0.6-2.7-0.6-5.6 0-6.5 3.6-10.3 3.6-3.8 9.8-3.8 6.3 0 9.9 3.9 3.6 3.9 3.6 10.6 0 2.6-0.5 4.9-0.5 2.4-1.4 4.5h-5.4q1.2-2.2 1.8-4.3 0.6-2.2 0.6-4.3 0-4-2.2-6.2-2.2-2.1-6.4-2.1-4.1 0-6.3 2-2.3 2.1-2.3 6 0 1 0.1 1.9 0.2 0.9 0.5 1.6h5v-4.1h4.5zm2.8 28.9l-7.8 7.2q1.2 0.9 2.7 1.3 1.5 0.5 3.4 0.6v5.4q-3.1-0.2-5.6-1.2-2.5-1-4.3-2.7l-5.6 5.1v-7.4l1.9-1.7q-1.3-1.8-1.8-3.8-0.6-2-0.6-4.3 0-4.6 2.4-7.4 2.4-2.8 6.2-2.8 2.5 0 4.5 1.2 1.9 1.3 3.8 4.1 0.9-0.7 1.8-1.1 0.9-0.3 2-0.3 2.8 0 4.5 2.2 1.7 2.2 1.7 5.9 0 1.5-0.3 3.2-0.2 1.8-0.7 3.6h-4.8q0.8-1.6 1.2-3.1 0.4-1.4 0.4-2.8 0-1.4-0.5-2.1-0.5-0.7-1.5-0.7-0.6 0-1.3 0.4-0.8 0.4-1.7 1.2zm-11.8 3.4l7.5-6.8q-0.8-1.1-1.9-1.7-1-0.6-2.2-0.6-2 0-3.4 1.5-1.4 1.5-1.4 3.5 0 1.2 0.3 2.2 0.4 1 1.1 1.9z"/>
		<path id="Rectangle 15" fill-rule="evenodd" class="s4" d="m179.4 702.9h730.1v88.4h-730.1z"/>
		<path id="RECORDING &amp; REPORTING" class="s0" aria-label="RECORDING &amp; REPORTING"  d="m413.1 745.6h2.9q2.1 0 3-0.8 0.9-0.8 0.9-2.6 0-1.8-0.9-2.5-0.9-0.8-3-0.8h-2.9zm1.9 4.6h-1.9v9.8h-6.7v-25.9h10.3q5.1 0 7.5 1.7 2.4 1.7 2.4 5.4 0 2.6-1.3 4.3-1.2 1.6-3.7 2.4 1.4 0.3 2.4 1.4 1.1 1.1 2.2 3.4l3.7 7.3h-7.2l-3.1-6.4q-1-2-2-2.7-0.9-0.7-2.6-0.7zm18.9 9.8v-25.9h18v5h-11.3v4.9h10.6v5h-10.6v6h11.7v5zm44.9-6.8v5.4q-1.8 1-3.8 1.5-2 0.4-4.2 0.4-6.5 0-10.3-3.6-3.8-3.6-3.8-9.8 0-6.2 3.8-9.8 3.8-3.7 10.3-3.7 2.2 0 4.2 0.5 2 0.5 3.8 1.4v5.4q-1.9-1.3-3.7-1.8-1.8-0.6-3.8-0.6-3.5 0-5.6 2.3-2.1 2.3-2.1 6.3 0 4 2.1 6.3 2.1 2.3 5.6 2.3 2 0 3.8-0.6 1.8-0.6 3.7-1.9zm17.4-14.7q-3.1 0-4.7 2.2-1.7 2.3-1.7 6.4 0 4.1 1.7 6.3 1.6 2.3 4.7 2.3 3.1 0 4.8-2.3 1.7-2.2 1.7-6.3 0-4.1-1.7-6.4-1.7-2.2-4.8-2.2zm0-4.9q6.3 0 9.8 3.6 3.6 3.6 3.6 9.9 0 6.3-3.6 9.9-3.5 3.5-9.8 3.5-6.2 0-9.8-3.5-3.5-3.6-3.5-9.9 0-6.3 3.5-9.9 3.6-3.6 9.8-3.6zm25.1 12h2.8q2.1 0 3-0.8 1-0.8 1-2.6 0-1.7-1-2.5-0.9-0.8-3-0.8h-2.8zm1.9 4.7h-1.9v9.8h-6.7v-26h10.2q5.2 0 7.6 1.7 2.4 1.8 2.4 5.5 0 2.6-1.3 4.2-1.2 1.7-3.7 2.4 1.3 0.4 2.4 1.5 1.1 1.1 2.2 3.3l3.7 7.4h-7.2l-3.1-6.5q-1-1.9-2-2.6-1-0.7-2.6-0.7zm27.9-11.1h-2.4v15.8h2.4q4.1 0 6.3-2 2.2-2 2.2-5.9 0-3.9-2.2-5.9-2.2-2-6.3-2zm-9.1 20.9v-26h7.1q5.9 0 8.8 0.9 2.9 0.8 5 2.8 1.8 1.8 2.7 4.1 0.9 2.3 0.9 5.2 0 2.9-0.9 5.2-0.9 2.3-2.7 4.1-2.1 2-5 2.8-3 0.9-8.8 0.9zm29.5 0v-26h6.7v26zm13.3 0v-26h7.5l9.4 17.8v-17.8h6.3v26h-7.4l-9.5-17.8v17.8zm53.2-14.4v12.5q-2.5 1.2-5.2 1.8-2.7 0.6-5.6 0.6-6.5 0-10.3-3.6-3.8-3.7-3.8-9.9 0-6.2 3.9-9.8 3.9-3.6 10.6-3.6 2.6 0 4.9 0.4 2.4 0.5 4.5 1.5v5.4q-2.2-1.3-4.3-1.9-2.2-0.6-4.3-0.6-4 0-6.2 2.3-2.1 2.2-2.1 6.3 0 4.2 2 6.4 2.1 2.2 6 2.2 1 0 1.9-0.1 0.9-0.1 1.6-0.4v-5h-4.1v-4.5zm28.9-2.8l7.2 7.8q0.9-1.2 1.3-2.8 0.5-1.5 0.6-3.4h5.4q-0.2 3.2-1.2 5.7-1 2.4-2.7 4.3l5.1 5.6h-7.4l-1.7-1.9q-1.8 1.2-3.8 1.8-2 0.6-4.3 0.6-4.6 0-7.4-2.4-2.8-2.4-2.8-6.2 0-2.6 1.2-4.5 1.3-2 4.1-3.8-0.7-0.9-1.1-1.9-0.3-0.9-0.3-1.9 0-2.8 2.2-4.5 2.2-1.7 5.8-1.7 1.6 0 3.3 0.2 1.8 0.3 3.6 0.8v4.8q-1.6-0.8-3.1-1.2-1.4-0.4-2.8-0.4-1.4 0-2.1 0.5-0.7 0.5-0.7 1.4 0 0.6 0.4 1.4 0.4 0.7 1.2 1.7zm3.4 11.8l-6.8-7.5q-1.1 0.8-1.7 1.8-0.6 1.1-0.6 2.3 0 2 1.5 3.4 1.5 1.4 3.5 1.4 1.2 0 2.2-0.3 1-0.4 1.9-1.1z"/>
		<path id="Rectangle 17" fill-rule="evenodd" class="s5" d="m9.1 17.9h1071.6v823.8h-1071.6z"/>
		<path id="Shape 2" fill-rule="evenodd" class="s0" d="m526 1v33l18-17z"/>
		<path id="Shape 2" fill-rule="evenodd" class="s0" d="m561 858v-33l-18 17z"/>
	</g>
</svg>