<svg width="77" height="24" viewBox="0 0 77 24" fill="none" xmlns="http://www.w3.org/2000/svg">
<g clip-path="url(#clip0_2001_13170)">
<path d="M12.0142 0C9.57064 0.00352287 7.18604 0.749091 5.1777 2.13745C3.16935 3.52581 1.63247 5.49115 0.771523 7.77204C-0.0894288 10.0529 -0.233639 12.5412 0.358091 14.9059C0.94982 17.2705 2.24943 19.3994 4.08402 21.0093C4.96733 20.3966 5.64864 19.5365 6.04179 18.5376C4.44236 17.0188 3.46645 14.9611 3.30385 12.7644C3.14126 10.5678 3.8036 8.38932 5.16207 6.65274C6.52054 4.91617 8.47803 3.74564 10.6539 3.36869C12.8297 2.99174 15.0683 3.43533 16.9344 4.61328C18.8004 5.79122 20.1605 7.61933 20.7501 9.74197C21.3398 11.8646 21.1168 14.1301 20.1246 16.0978C19.1324 18.0656 17.4418 19.595 15.3817 20.3886C13.3216 21.1821 11.0392 21.1831 8.97845 20.3913C7.87331 21.2473 6.54371 21.7666 5.14964 21.8867C6.7016 22.9515 8.48254 23.6379 10.3491 23.8908C12.2156 24.1436 14.1156 23.9558 15.8961 23.3425C17.6765 22.7292 19.2878 21.7075 20.6 20.3597C21.9123 19.0118 22.8889 17.3756 23.4513 15.5826C24.0136 13.7895 24.1461 11.8898 23.8378 10.0364C23.5296 8.18296 22.7894 6.42763 21.6767 4.91168C20.5641 3.39573 19.1101 2.16159 17.4318 1.30848C15.7536 0.455368 13.8979 0.00715954 12.0142 0V0Z" fill="#0074D9"/>
</g>
<path d="M32.4988 20.1797C32.0847 19.9375 31.9284 19.6445 32.03 19.3008L32.5222 17.6953C32.6628 17.2344 33.03 17.1875 33.6238 17.5547C34.1316 17.875 34.698 18.0352 35.323 18.0352C36.1824 18.0352 36.7409 17.7383 36.9988 17.1445C37.2644 16.5508 37.3972 15.5625 37.3972 14.1797V4.47656C37.3972 3.89062 37.6706 3.59766 38.2175 3.59766H39.9988C40.5456 3.59766 40.8191 3.89062 40.8191 4.47656V13.9453C40.8191 16.8203 40.3347 18.6836 39.3659 19.5352C38.405 20.3789 37.0691 20.8008 35.3581 20.8008C34.1628 20.8008 33.2097 20.5938 32.4988 20.1797Z" fill="#111111"/>
<path d="M43.5613 12C43.5613 9.30469 44.2566 7.16406 45.6472 5.57812C47.0378 3.99219 49.0222 3.19922 51.6003 3.19922C54.1784 3.19922 56.1628 3.99219 57.5534 5.57812C58.9441 7.16406 59.6394 9.30469 59.6394 12C59.6394 14.6953 58.9441 16.8359 57.5534 18.4219C56.1628 20.0078 54.1784 20.8008 51.6003 20.8008C49.0222 20.8008 47.0378 20.0078 45.6472 18.4219C44.2566 16.8359 43.5613 14.6953 43.5613 12ZM47.2175 12C47.2175 13.9531 47.5652 15.4492 48.2605 16.4883C48.9636 17.5195 50.0769 18.0352 51.6003 18.0352C53.1238 18.0352 54.2331 17.5195 54.9284 16.4883C55.6316 15.4492 55.9831 13.9531 55.9831 12C55.9831 10.0469 55.6316 8.55469 54.9284 7.52344C54.2331 6.48438 53.1238 5.96484 51.6003 5.96484C50.0769 5.96484 48.9636 6.48438 48.2605 7.52344C47.5652 8.55469 47.2175 10.0469 47.2175 12Z" fill="#111111"/>
<path d="M61.8425 4.60547C61.4441 3.93359 61.6277 3.59766 62.3933 3.59766H64.4441C64.8503 3.59766 65.2097 3.86719 65.5222 4.40625L68.0183 8.75391C68.0886 8.87109 68.2956 9.23828 68.6394 9.85547C68.9831 10.4648 69.1824 11.0586 69.237 11.6367H69.2839C69.3386 11.0586 69.5378 10.4648 69.8816 9.85547C70.2253 9.23828 70.4324 8.87109 70.5027 8.75391L72.9988 4.40625C73.3113 3.86719 73.6706 3.59766 74.0769 3.59766H76.1277C76.8933 3.59766 77.0769 3.93359 76.6784 4.60547L70.9714 14.25V19.7578C70.9714 20.1875 70.698 20.4023 70.1511 20.4023H68.3699C67.823 20.4023 67.5495 20.1875 67.5495 19.7578V14.25L61.8425 4.60547Z" fill="#111111"/>
<defs>
<clipPath id="clip0_2001_13170">
<rect width="24" height="24" fill="white"/>
</clipPath>
</defs>
</svg>
